<svg class="border shadow-md" viewBox="0 0 1013.76 570.24" style="width: 1013.76px; height: 570.24px;" xmlns="http://www.w3.org/2000/svg" preserveAspectRatio="none"><rect class="bg" id="bg" x="0" y="0" width="1013.76" height="570.24" fill="#00241b"/><g transform="translate(0 0)"><path d="M217,219.5Q169,270,118,219.5Q67,169,118,85.5Q169,2,217,85.5Q265,169,217,219.5Z" fill="#4E878C"/></g><g transform="translate(84.48 84.48)"><path d="M105.5,115.5Q84,147,61,115.5Q38,84,61,48Q84,12,105.5,48Q127,84,105.5,115.5Z" fill="#000000" opacity="0.3"/></g><g transform="translate(0 337.92)"><path d="M268.5,218.5Q248,268,192.5,289Q137,310,110.5,260Q84,210,80,167Q76,124,110.5,94.5Q145,65,200,63Q255,61,272,115Q289,169,268.5,218.5Z" fill="#B5FFE1"/></g><g transform="translate(84.48 422.40000000000003)"><path d="M129,103Q114,122,92.5,132.5Q71,143,48,128Q25,113,17.5,81Q10,49,39,29.5Q68,10,100,17.5Q132,25,138,54.5Q144,84,129,103Z" fill="#000000" opacity="0.3"/></g><g transform="translate(0 675.84)"><path d="M246,241Q216,313,140,279.5Q64,246,54.5,162.5Q45,79,129.5,55Q214,31,245,100Q276,169,246,241Z" fill="#4E878C"/></g><g transform="translate(84.48 760.32)"><path d="M131,113.5Q104,143,73.5,128.5Q43,114,32,76Q21,38,60,38Q99,38,128.5,61Q158,84,131,113.5Z" fill="#000000" opacity="0.3"/></g><g transform="translate(0 1013.76)"><path d="M265.5,204.5Q240,240,204.5,265Q169,290,115.5,283Q62,276,47.5,222.5Q33,169,70.5,138.5Q108,108,138.5,72Q169,36,216.5,55Q264,74,277.5,121.5Q291,169,265.5,204.5Z" fill="#65B891"/></g><g transform="translate(84.48 1098.24)"><path d="M140,107.5Q131,131,107.5,147Q84,163,62.5,145.5Q41,128,37.5,106Q34,84,43,68Q52,52,68,39.5Q84,27,102.5,37.5Q121,48,135,66Q149,84,140,107.5Z" fill="#000000" opacity="0.3"/></g><g transform="translate(337.92 -168.96)"><path d="M293,227.5Q262,286,198,304Q134,322,98.5,271Q63,220,62,168.5Q61,117,105.5,101.5Q150,86,201,75.5Q252,65,288,117Q324,169,293,227.5Z" fill="#93E5AB"/></g><g transform="translate(422.40000000000003 -84.48)"><path d="M149.5,114.5Q133,145,103.5,137Q74,129,51.5,120Q29,111,30,85Q31,59,52.5,48Q74,37,93.5,42.5Q113,48,139.5,66Q166,84,149.5,114.5Z" fill="#000000" opacity="0.3"/></g><g transform="translate(337.92 168.96)"><path d="M239,250.5Q169,332,109.5,250.5Q50,169,109.5,99Q169,29,239,99Q309,169,239,250.5Z" fill="#65B891"/></g><g transform="translate(422.40000000000003 253.44)"><path d="M125.5,124.5Q84,165,54,124.5Q24,84,54,49Q84,14,125.5,49Q167,84,125.5,124.5Z" fill="#000000" opacity="0.3"/></g><g transform="translate(337.92 506.88)"><path d="M283,206.5Q244,244,206.5,257.5Q169,271,117.5,271.5Q66,272,54,220.5Q42,169,57.5,121Q73,73,121,62.5Q169,52,224.5,55Q280,58,301,113.5Q322,169,283,206.5Z" fill="#93E5AB"/></g><g transform="translate(422.40000000000003 591.36)"><path d="M145.5,110Q136,136,110,147.5Q84,159,65,141Q46,123,34.5,103.5Q23,84,24.5,55Q26,26,55,19Q84,12,105.5,27Q127,42,141,63Q155,84,145.5,110Z" fill="#000000" opacity="0.3"/></g><g transform="translate(337.92 844.8)"><path d="M307,218Q286,267,241,295.5Q196,324,143,315Q90,306,55.5,264.5Q21,223,19.5,168.5Q18,114,54.5,73.5Q91,33,144,22Q197,11,242,40.5Q287,70,307.5,119.5Q328,169,307,218Z" fill="#65B891"/></g><g transform="translate(422.40000000000003 929.28)"><path d="M156.5,109.5Q145,135,121.5,148.5Q98,162,70.5,159Q43,156,28,133.5Q13,111,11,84Q9,57,27,36.5Q45,16,72,9.5Q99,3,123.5,17.5Q148,32,158,58Q168,84,156.5,109.5Z" fill="#000000" opacity="0.3"/></g><g transform="translate(675.84 0)"><path d="M253,226.5Q169,284,115.5,226.5Q62,169,115.5,116.5Q169,64,253,116.5Q337,169,253,226.5Z" fill="#B5FFE1"/></g><g transform="translate(760.32 84.48)"><path d="M122,117.5Q84,151,63,117.5Q42,84,63,43.5Q84,3,122,43.5Q160,84,122,117.5Z" fill="#000000" opacity="0.3"/></g><g transform="translate(675.84 337.92)"><path d="M247,202Q235,235,202,266Q169,297,109.5,292.5Q50,288,43,228.5Q36,169,68.5,135Q101,101,135,65Q169,29,200,68Q231,107,245,138Q259,169,247,202Z" fill="#65B891"/></g><g transform="translate(760.32 422.40000000000003)"><path d="M137,100Q116,116,100,138.5Q84,161,67,140Q50,119,33.5,101.5Q17,84,32.5,66Q48,48,66,40Q84,32,114,28.5Q144,25,151,54.5Q158,84,137,100Z" fill="#000000" opacity="0.3"/></g><g transform="translate(675.84 675.84)"><path d="M241,220Q169,271,94,220Q19,169,94,101Q169,33,241,101Q313,169,241,220Z" fill="#65B891"/></g><g transform="translate(760.32 760.32)"><path d="M105.5,119Q84,154,56.5,119Q29,84,56.5,43.5Q84,3,105.5,43.5Q127,84,105.5,119Z" fill="#000000" opacity="0.3"/></g><g transform="translate(675.84 1013.76)"><path d="M224,232Q169,295,101.5,232Q34,169,101.5,98Q169,27,224,98Q279,169,224,232Z" fill="#93E5AB"/></g><g transform="translate(760.32 1098.24)"><path d="M106.5,126.5Q84,169,57,126.5Q30,84,57,52.5Q84,21,106.5,52.5Q129,84,106.5,126.5Z" fill="#000000" opacity="0.3"/></g><g transform="translate(1013.76 -168.96)"><path d="M253,246Q169,323,90.5,246Q12,169,90.5,86.5Q169,4,253,86.5Q337,169,253,246Z" fill="#4E878C"/></g><g transform="translate(1098.24 -84.48)"><path d="M122.5,126.5Q84,169,45,126.5Q6,84,45,44Q84,4,122.5,44Q161,84,122.5,126.5Z" fill="#000000" opacity="0.3"/></g><g transform="translate(1013.76 168.96)"><path d="M249,244Q169,319,90,244Q11,169,90,92.5Q169,16,249,92.5Q329,169,249,244Z" fill="#B5FFE1"/></g><g transform="translate(1098.24 253.44)"><path d="M118,118.5Q84,153,42,118.5Q0,84,42,42.5Q84,1,118,42.5Q152,84,118,118.5Z" fill="#000000" opacity="0.3"/></g><g transform="translate(1013.76 506.88)"><path d="M228,245.5Q169,322,84.5,245.5Q0,169,84.5,108.5Q169,48,228,108.5Q287,169,228,245.5Z" fill="#B5FFE1"/></g><g transform="translate(1098.24 591.36)"><path d="M120,112.5Q84,141,43.5,112.5Q3,84,43.5,63Q84,42,120,63Q156,84,120,112.5Z" fill="#000000" opacity="0.3"/></g><g transform="translate(1013.76 844.8)"><path d="M241.5,249Q169,329,98.5,249Q28,169,98.5,108.5Q169,48,241.5,108.5Q314,169,241.5,249Z" fill="#4E878C"/></g><g transform="translate(1098.24 929.28)"><path d="M126,125.5Q84,167,44,125.5Q4,84,44,46Q84,8,126,46Q168,84,126,125.5Z" fill="#000000" opacity="0.3"/></g></svg>