<svg class="border shadow-md" viewBox="0 0 1013.76 570.24" style="width: 1013.76px; height: 570.24px;" xmlns="http://www.w3.org/2000/svg" preserveAspectRatio="none"><rect class="bg" id="bg" x="0" y="0" width="1013.76" height="570.24" fill="#00241b"/><g transform="translate(0 0)"><path d="M55.5,44Q50,54,39,56.5Q28,59,16.5,53.5Q5,48,5,34Q5,20,16,11.5Q27,3,39,7.5Q51,12,56,23Q61,34,55.5,44Z" fill="#65B891"/></g><g transform="translate(16.896 16.896)"><path d="M28.5,21.5Q24,26,19,28.5Q14,31,9.5,27Q5,23,5,17Q5,11,9,6Q13,1,19,3.5Q25,6,29,11.5Q33,17,28.5,21.5Z" fill="#000000" opacity="0.3"/></g><g transform="translate(0 67.584)"><path d="M58,47.5Q50,61,34,61Q18,61,9.5,47.5Q1,34,10,20.5Q19,7,34,7Q49,7,57.5,20.5Q66,34,58,47.5Z" fill="#B5FFE1"/></g><g transform="translate(16.896 84.48)"><path d="M29,24Q25,31,17,31Q9,31,4.5,24Q0,17,4.5,10Q9,3,17,3Q25,3,29,10Q33,17,29,24Z" fill="#000000" opacity="0.3"/></g><g transform="translate(0 135.168)"><path d="M58,48Q50,62,34,61Q18,60,9,47Q0,34,9,20Q18,6,34,6Q50,6,58,20Q66,34,58,48Z" fill="#65B891"/></g><g transform="translate(16.896 152.06400000000002)"><path d="M29.5,24Q25,31,17,31Q9,31,5.5,24Q2,17,5.5,10.5Q9,4,17,3.5Q25,3,29.5,10Q34,17,29.5,24Z" fill="#000000" opacity="0.3"/></g><g transform="translate(0 202.752)"><path d="M53.5,47.5Q49,61,33.5,60.5Q18,60,10.5,47Q3,34,11.5,22Q20,10,34.5,9Q49,8,53.5,21Q58,34,53.5,47.5Z" fill="#4E878C"/></g><g transform="translate(16.896 219.64800000000002)"><path d="M27.5,24Q25,31,17,31Q9,31,6.5,24Q4,17,6.5,10Q9,3,16.5,4Q24,5,27,11Q30,17,27.5,24Z" fill="#000000" opacity="0.3"/></g><g transform="translate(0 270.336)"><path d="M54,46.5Q48,59,34.5,57.5Q21,56,13,45Q5,34,12,21.5Q19,9,33.5,9Q48,9,54,21.5Q60,34,54,46.5Z" fill="#65B891"/></g><g transform="translate(16.896 287.232)"><path d="M27,23Q24,29,17,29.5Q10,30,7.5,23.5Q5,17,8,11.5Q11,6,18,4Q25,2,27.5,9.5Q30,17,27,23Z" fill="#000000" opacity="0.3"/></g><g transform="translate(0 337.92)"><path d="M52.5,45Q47,56,32.5,58.5Q18,61,12,47.5Q6,34,13.5,23Q21,12,33.5,12Q46,12,52,23Q58,34,52.5,45Z" fill="#93E5AB"/></g><g transform="translate(16.896 354.81600000000003)"><path d="M29,22.5Q24,28,17,28.5Q10,29,5.5,23Q1,17,5,10.5Q9,4,17,4Q25,4,29.5,10.5Q34,17,29,22.5Z" fill="#000000" opacity="0.3"/></g><g transform="translate(0 405.504)"><path d="M53.5,46.5Q49,59,35,57.5Q21,56,14.5,45Q8,34,14,22Q20,10,34,9.5Q48,9,53,21.5Q58,34,53.5,46.5Z" fill="#4E878C"/></g><g transform="translate(16.896 422.40000000000003)"><path d="M27.5,23Q24,29,16.5,30Q9,31,5.5,24Q2,17,6.5,12Q11,7,17.5,6Q24,5,27.5,11Q31,17,27.5,23Z" fill="#000000" opacity="0.3"/></g><g transform="translate(0 473.088)"><path d="M57.5,47.5Q50,61,34,61.5Q18,62,12.5,48Q7,34,12.5,20.5Q18,7,34,7Q50,7,57.5,20.5Q65,34,57.5,47.5Z" fill="#93E5AB"/></g><g transform="translate(16.896 489.98400000000004)"><path d="M27,24Q25,31,17.5,30Q10,29,5.5,23Q1,17,6,11.5Q11,6,17,6Q23,6,26,11.5Q29,17,27,24Z" fill="#000000" opacity="0.3"/></g><g transform="translate(0 540.672)"><path d="M54,45.5Q47,57,32.5,59Q18,61,11,47.5Q4,34,11,20.5Q18,7,32,10Q46,13,53.5,23.5Q61,34,54,45.5Z" fill="#4E878C"/></g><g transform="translate(16.896 557.568)"><path d="M29,23.5Q25,30,17.5,29.5Q10,29,6.5,23Q3,17,6,9.5Q9,2,17,2.5Q25,3,29,10Q33,17,29,23.5Z" fill="#000000" opacity="0.3"/></g><g transform="translate(0 608.2560000000001)"><path d="M57.5,45Q56,56,45,57.5Q34,59,24.5,55.5Q15,52,10.5,43Q6,34,8.5,22.5Q11,11,22.5,6.5Q34,2,44.5,7Q55,12,57,23Q59,34,57.5,45Z" fill="#4E878C"/></g><g transform="translate(16.896 625.152)"><path d="M29.5,21.5Q26,26,21.5,29.5Q17,33,11.5,30.5Q6,28,3,22.5Q0,17,2.5,11Q5,5,11,3.5Q17,2,22,4.5Q27,7,30,12Q33,17,29.5,21.5Z" fill="#000000" opacity="0.3"/></g><g transform="translate(0 675.84)"><path d="M56.5,44.5Q46,55,32.5,57.5Q19,60,13,47Q7,34,12,19.5Q17,5,33.5,5.5Q50,6,58.5,20Q67,34,56.5,44.5Z" fill="#B5FFE1"/></g><g transform="translate(16.896 692.736)"><path d="M29,24Q25,31,17.5,30Q10,29,7,23Q4,17,7,10.5Q10,4,16.5,5Q23,6,28,11.5Q33,17,29,24Z" fill="#000000" opacity="0.3"/></g><g transform="translate(0 743.424)"><path d="M58,47Q49,60,33,61Q17,62,9.5,48Q2,34,12,23.5Q22,13,35,11Q48,9,57.5,21.5Q67,34,58,47Z" fill="#4E878C"/></g><g transform="translate(16.896 760.3199999999999)"><path d="M27,23.5Q25,30,18,28.5Q11,27,7.5,22Q4,17,7,11Q10,5,17,4.5Q24,4,26.5,10.5Q29,17,27,23.5Z" fill="#000000" opacity="0.3"/></g><g transform="translate(0 811.008)"><path d="M56.5,46Q48,58,33,60Q18,62,13.5,48Q9,34,13,19.5Q17,5,31.5,8.5Q46,12,55.5,23Q65,34,56.5,46Z" fill="#65B891"/></g><g transform="translate(16.896 827.904)"><path d="M26.5,22Q23,27,16.5,28Q10,29,7,23Q4,17,6.5,10.5Q9,4,17,3.5Q25,3,27.5,10Q30,17,26.5,22Z" fill="#000000" opacity="0.3"/></g><g transform="translate(0 878.5920000000001)"><path d="M57.5,47.5Q50,61,34.5,60.5Q19,60,10.5,47Q2,34,10,20Q18,6,34,5.5Q50,5,57.5,19.5Q65,34,57.5,47.5Z" fill="#B5FFE1"/></g><g transform="translate(16.896 895.488)"><path d="M28.5,23.5Q25,30,17,30.5Q9,31,5,24Q1,17,5,10Q9,3,17,3Q25,3,28.5,10Q32,17,28.5,23.5Z" fill="#000000" opacity="0.3"/></g><g transform="translate(0 946.176)"><path d="M54.5,47.5Q50,61,34.5,60.5Q19,60,13.5,47Q8,34,13.5,20.5Q19,7,33,9Q47,11,53,22.5Q59,34,54.5,47.5Z" fill="#65B891"/></g><g transform="translate(16.896 963.072)"><path d="M27,23.5Q25,30,17,30Q9,30,5,23.5Q1,17,6,11.5Q11,6,17,6Q23,6,26,11.5Q29,17,27,23.5Z" fill="#000000" opacity="0.3"/></g><g transform="translate(0 1013.76)"><path d="M61,43.5Q56,53,47,56Q38,59,29,58.5Q20,58,13.5,51Q7,44,4.5,33Q2,22,11.5,16.5Q21,11,29.5,10.5Q38,10,45.5,14Q53,18,59.5,26Q66,34,61,43.5Z" fill="#B5FFE1"/></g><g transform="translate(16.896 1030.656)"><path d="M30.5,22Q29,27,24,28Q19,29,14.5,28.5Q10,28,6,25Q2,22,3.5,17Q5,12,7.5,8.5Q10,5,15,2.5Q20,0,23,4.5Q26,9,29,13Q32,17,30.5,22Z" fill="#000000" opacity="0.3"/></g><g transform="translate(67.584 -33.792)"><path d="M55.5,47Q49,60,34.5,58.5Q20,57,10.5,45.5Q1,34,10.5,22Q20,10,34.5,8.5Q49,7,55.5,20.5Q62,34,55.5,47Z" fill="#93E5AB"/></g><g transform="translate(84.48 -16.896)"><path d="M29,23.5Q24,30,17,29.5Q10,29,6,23Q2,17,5.5,10.5Q9,4,16.5,4.5Q24,5,29,11Q34,17,29,23.5Z" fill="#000000" opacity="0.3"/></g><g transform="translate(67.584 33.792)"><path d="M54.5,48.5Q50,63,35.5,60Q21,57,12,45.5Q3,34,11,21Q19,8,34.5,7Q50,6,54.5,20Q59,34,54.5,48.5Z" fill="#93E5AB"/></g><g transform="translate(84.48 50.688)"><path d="M26,22.5Q23,28,17,27.5Q11,27,7,22Q3,17,6,10Q9,3,16.5,4Q24,5,26.5,11Q29,17,26,22.5Z" fill="#000000" opacity="0.3"/></g><g transform="translate(67.584 101.376)"><path d="M52,44Q46,54,32.5,56.5Q19,59,14.5,46.5Q10,34,14,20.5Q18,7,32,9.5Q46,12,52,23Q58,34,52,44Z" fill="#B5FFE1"/></g><g transform="translate(84.48 118.272)"><path d="M28.5,23Q24,29,17,29Q10,29,7.5,23Q5,17,8,11.5Q11,6,18,4.5Q25,3,29,10Q33,17,28.5,23Z" fill="#000000" opacity="0.3"/></g><g transform="translate(67.584 168.96)"><path d="M56.5,45Q47,56,34,56.5Q21,57,10.5,45.5Q0,34,9.5,21.5Q19,9,33,10Q47,11,56.5,22.5Q66,34,56.5,45Z" fill="#65B891"/></g><g transform="translate(84.48 185.856)"><path d="M28,23.5Q25,30,17.5,29.5Q10,29,7.5,23Q5,17,7,10Q9,3,17,2.5Q25,2,28,9.5Q31,17,28,23.5Z" fill="#000000" opacity="0.3"/></g><g transform="translate(67.584 236.544)"><path d="M57.5,45Q52,56,39.5,59.5Q27,63,16.5,55Q6,47,5.5,33.5Q5,20,16.5,13Q28,6,41.5,7Q55,8,59,21Q63,34,57.5,45Z" fill="#93E5AB"/></g><g transform="translate(84.48 253.44)"><path d="M29.5,22.5Q26,28,20,29Q14,30,8.5,26.5Q3,23,3.5,17Q4,11,9,6.5Q14,2,20,4Q26,6,29.5,11.5Q33,17,29.5,22.5Z" fill="#000000" opacity="0.3"/></g><g transform="translate(67.584 304.12800000000004)"><path d="M59,45.5Q57,57,45.5,60.5Q34,64,22.5,60.5Q11,57,6,45.5Q1,34,9,25.5Q17,17,25.5,10Q34,3,44.5,8Q55,13,58,23.5Q61,34,59,45.5Z" fill="#93E5AB"/></g><g transform="translate(84.48 321.02400000000006)"><path d="M29,22.5Q28,28,22.5,29.5Q17,31,12,28.5Q7,26,5,21.5Q3,17,5.5,12.5Q8,8,12.5,4Q17,0,21,4Q25,8,27.5,12.5Q30,17,29,22.5Z" fill="#000000" opacity="0.3"/></g><g transform="translate(67.584 371.712)"><path d="M56,46.5Q48,59,34,58.5Q20,58,11,46Q2,34,10.5,21.5Q19,9,34.5,8Q50,7,57,20.5Q64,34,56,46.5Z" fill="#65B891"/></g><g transform="translate(84.48 388.608)"><path d="M28,24Q25,31,17.5,30.5Q10,30,5.5,23.5Q1,17,5,10Q9,3,17,3Q25,3,28,10Q31,17,28,24Z" fill="#000000" opacity="0.3"/></g><g transform="translate(67.584 439.29600000000005)"><path d="M57.5,43.5Q57,53,48,57Q39,61,30,58.5Q21,56,16,49Q11,42,11,34Q11,26,14.5,16Q18,6,28.5,6Q39,6,49,9.5Q59,13,58.5,23.5Q58,34,57.5,43.5Z" fill="#B5FFE1"/></g><g transform="translate(84.48 456.19200000000006)"><path d="M29.5,22.5Q30,28,24.5,30Q19,32,15,29.5Q11,27,6.5,24.5Q2,22,3,17Q4,12,7.5,9.5Q11,7,15.5,4Q20,1,24,4Q28,7,28.5,12Q29,17,29.5,22.5Z" fill="#000000" opacity="0.3"/></g><g transform="translate(67.584 506.88)"><path d="M52,45Q46,56,33.5,56Q21,56,13.5,45Q6,34,13.5,22.5Q21,11,34,11.5Q47,12,52.5,23Q58,34,52,45Z" fill="#93E5AB"/></g><g transform="translate(84.48 523.776)"><path d="M27.5,23Q24,29,17.5,28Q11,27,6.5,22Q2,17,6.5,11.5Q11,6,18,4.5Q25,3,28,10Q31,17,27.5,23Z" fill="#000000" opacity="0.3"/></g><g transform="translate(67.584 574.464)"><path d="M54.5,47.5Q49,61,34,60Q19,59,13,46.5Q7,34,14.5,23.5Q22,13,34.5,11.5Q47,10,53.5,22Q60,34,54.5,47.5Z" fill="#B5FFE1"/></g><g transform="translate(84.48 591.36)"><path d="M27,23.5Q25,30,18,28.5Q11,27,7.5,22Q4,17,7,11Q10,5,17,4.5Q24,4,26.5,10.5Q29,17,27,23.5Z" fill="#000000" opacity="0.3"/></g><g transform="translate(67.584 642.048)"><path d="M56.5,48.5Q50,63,35.5,59.5Q21,56,13,45Q5,34,12.5,22.5Q20,11,33.5,11.5Q47,12,55,23Q63,34,56.5,48.5Z" fill="#4E878C"/></g><g transform="translate(84.48 658.944)"><path d="M27.5,23.5Q24,30,17,29.5Q10,29,6,23Q2,17,6,11Q10,5,17.5,4Q25,3,28,10Q31,17,27.5,23.5Z" fill="#000000" opacity="0.3"/></g><g transform="translate(67.584 709.632)"><path d="M58,48.5Q50,63,33.5,63Q17,63,9.5,48.5Q2,34,10.5,21Q19,8,34,8Q49,8,57.5,21Q66,34,58,48.5Z" fill="#65B891"/></g><g transform="translate(84.48 726.5279999999999)"><path d="M27.5,23Q24,29,16.5,29.5Q9,30,5.5,23.5Q2,17,6,11Q10,5,17,5Q24,5,27.5,11Q31,17,27.5,23Z" fill="#000000" opacity="0.3"/></g><g transform="translate(67.584 777.216)"><path d="M58.5,48.5Q50,63,34.5,61Q19,59,9.5,46.5Q0,34,9,20.5Q18,7,33,8Q48,9,57.5,21.5Q67,34,58.5,48.5Z" fill="#65B891"/></g><g transform="translate(84.48 794.112)"><path d="M27.5,23Q24,29,16.5,30Q9,31,6,24Q3,17,6.5,11Q10,5,17.5,4Q25,3,28,10Q31,17,27.5,23Z" fill="#000000" opacity="0.3"/></g><g transform="translate(67.584 844.8000000000001)"><path d="M61.5,45.5Q57,57,45.5,60Q34,63,24,58Q14,53,9,43.5Q4,34,7.5,22.5Q11,11,22.5,8.5Q34,6,45.5,8Q57,10,61.5,22Q66,34,61.5,45.5Z" fill="#93E5AB"/></g><g transform="translate(84.48 861.696)"><path d="M28.5,22.5Q28,28,22.5,30.5Q17,33,11,31Q5,29,2.5,23Q0,17,3,11.5Q6,6,11.5,5.5Q17,5,23,5Q29,5,29,11Q29,17,28.5,22.5Z" fill="#000000" opacity="0.3"/></g><g transform="translate(67.584 912.384)"><path d="M59,44.5Q51,55,39,59.5Q27,64,15.5,56Q4,48,6,35Q8,22,17.5,13.5Q27,5,40.5,6.5Q54,8,60.5,21Q67,34,59,44.5Z" fill="#4E878C"/></g><g transform="translate(84.48 929.28)"><path d="M29,22.5Q26,28,20,29.5Q14,31,9,27Q4,23,3,16.5Q2,10,7.5,5.5Q13,1,20,2.5Q27,4,29.5,10.5Q32,17,29,22.5Z" fill="#000000" opacity="0.3"/></g><g transform="translate(67.584 979.968)"><path d="M55,46.5Q48,59,32.5,61Q17,63,10.5,48.5Q4,34,11.5,21.5Q19,9,34.5,7.5Q50,6,56,20Q62,34,55,46.5Z" fill="#B5FFE1"/></g><g transform="translate(84.48 996.8639999999999)"><path d="M28,24Q25,31,17.5,30.5Q10,30,6.5,23.5Q3,17,5.5,9.5Q8,2,16,3Q24,4,27.5,10.5Q31,17,28,24Z" fill="#000000" opacity="0.3"/></g><g transform="translate(135.168 0)"><path d="M52.5,45.5Q47,57,33.5,57.5Q20,58,10,46Q0,34,11,23.5Q22,13,35.5,10Q49,7,53.5,20.5Q58,34,52.5,45.5Z" fill="#B5FFE1"/></g><g transform="translate(152.06400000000002 16.896)"><path d="M26.5,22.5Q23,28,16.5,28.5Q10,29,7,23Q4,17,6.5,10Q9,3,16.5,4Q24,5,27,11Q30,17,26.5,22.5Z" fill="#000000" opacity="0.3"/></g><g transform="translate(135.168 67.584)"><path d="M55.5,44Q50,54,38.5,59Q27,64,19.5,54Q12,44,12,33.5Q12,23,20,15.5Q28,8,38.5,11Q49,14,55,24Q61,34,55.5,44Z" fill="#B5FFE1"/></g><g transform="translate(152.06400000000002 84.48)"><path d="M29.5,23Q27,29,20,30.5Q13,32,8,27.5Q3,23,2.5,16.5Q2,10,7.5,6Q13,2,19.5,4Q26,6,29,11.5Q32,17,29.5,23Z" fill="#000000" opacity="0.3"/></g><g transform="translate(135.168 135.168)"><path d="M54.5,48Q50,62,36,58.5Q22,55,13.5,44.5Q5,34,13,22.5Q21,11,33.5,12Q46,13,52.5,23.5Q59,34,54.5,48Z" fill="#B5FFE1"/></g><g transform="translate(152.06400000000002 152.06400000000002)"><path d="M29,23Q24,29,16.5,29.5Q9,30,5,23.5Q1,17,5.5,11Q10,5,17.5,4.5Q25,4,29.5,10.5Q34,17,29,23Z" fill="#000000" opacity="0.3"/></g><g transform="translate(135.168 202.752)"><path d="M52.5,44Q46,54,33.5,54.5Q21,55,12.5,44.5Q4,34,12,22Q20,10,33.5,10Q47,10,53,22Q59,34,52.5,44Z" fill="#65B891"/></g><g transform="translate(152.06400000000002 219.64800000000002)"><path d="M28.5,23.5Q25,30,17.5,29.5Q10,29,5.5,23Q1,17,6,11.5Q11,6,17.5,5Q24,4,28,10.5Q32,17,28.5,23.5Z" fill="#000000" opacity="0.3"/></g><g transform="translate(135.168 270.336)"><path d="M55.5,47.5Q50,61,33.5,62Q17,63,11.5,48.5Q6,34,12,20Q18,6,33,7.5Q48,9,54.5,21.5Q61,34,55.5,47.5Z" fill="#B5FFE1"/></g><g transform="translate(152.06400000000002 287.232)"><path d="M27.5,23.5Q24,30,17,29.5Q10,29,5.5,23Q1,17,5.5,11Q10,5,17,5Q24,5,27.5,11Q31,17,27.5,23.5Z" fill="#000000" opacity="0.3"/></g><g transform="translate(135.168 337.92)"><path d="M58,47.5Q50,61,33.5,61.5Q17,62,9.5,48Q2,34,9.5,19.5Q17,5,33.5,5.5Q50,6,58,20Q66,34,58,47.5Z" fill="#4E878C"/></g><g transform="translate(152.06400000000002 354.81600000000003)"><path d="M29,24Q25,31,17,31Q9,31,5,24Q1,17,5,10Q9,3,16.5,4Q24,5,28.5,11Q33,17,29,24Z" fill="#000000" opacity="0.3"/></g><g transform="translate(135.168 405.504)"><path d="M53,45Q47,56,34.5,55.5Q22,55,13,44.5Q4,34,11.5,21Q19,8,35,6.5Q51,5,55,19.5Q59,34,53,45Z" fill="#4E878C"/></g><g transform="translate(152.06400000000002 422.40000000000003)"><path d="M28.5,24Q25,31,16.5,31Q8,31,5,24Q2,17,5.5,10Q9,3,16,4.5Q23,6,27.5,11.5Q32,17,28.5,24Z" fill="#000000" opacity="0.3"/></g><g transform="translate(135.168 473.088)"><path d="M58,48Q50,62,35.5,59Q21,56,12,45Q3,34,12,23Q21,12,34,11Q47,10,56.5,22Q66,34,58,48Z" fill="#93E5AB"/></g><g transform="translate(152.06400000000002 489.98400000000004)"><path d="M28,23Q24,29,17.5,28.5Q11,28,7,22.5Q3,17,6.5,11Q10,5,16.5,5.5Q23,6,27.5,11.5Q32,17,28,23Z" fill="#000000" opacity="0.3"/></g><g transform="translate(135.168 540.672)"><path d="M58.5,43Q52,52,43,55Q34,58,23.5,56.5Q13,55,9,44.5Q5,34,10,24.5Q15,15,24.5,10.5Q34,6,43,11Q52,16,58.5,25Q65,34,58.5,43Z" fill="#4E878C"/></g><g transform="translate(152.06400000000002 557.568)"><path d="M30.5,23Q29,29,23,30Q17,31,12.5,28Q8,25,6,21Q4,17,5,11.5Q6,6,11.5,4Q17,2,21.5,5Q26,8,29,12.5Q32,17,30.5,23Z" fill="#000000" opacity="0.3"/></g><g transform="translate(135.168 608.2560000000001)"><path d="M56,45.5Q47,57,34.5,55.5Q22,54,15,44Q8,34,13.5,21.5Q19,9,34.5,7.5Q50,6,57.5,20Q65,34,56,45.5Z" fill="#B5FFE1"/></g><g transform="translate(152.06400000000002 625.152)"><path d="M28,22.5Q23,28,16,29.5Q9,31,6.5,24Q4,17,7,11Q10,5,16.5,5.5Q23,6,28,11.5Q33,17,28,22.5Z" fill="#000000" opacity="0.3"/></g><g transform="translate(135.168 675.84)"><path d="M57,44Q54,54,44,59.5Q34,65,23,60Q12,55,9.5,44.5Q7,34,11.5,25Q16,16,25,9.5Q34,3,43,9.5Q52,16,56,25Q60,34,57,44Z" fill="#B5FFE1"/></g><g transform="translate(152.06400000000002 692.736)"><path d="M28.5,22.5Q28,28,22.5,29Q17,30,12,28.5Q7,27,5,22Q3,17,4.5,11.5Q6,6,11.5,4Q17,2,22,4.5Q27,7,28,12Q29,17,28.5,22.5Z" fill="#000000" opacity="0.3"/></g><g transform="translate(135.168 743.424)"><path d="M62.5,44.5Q59,55,49,58.5Q39,62,29,61Q19,60,12,52Q5,44,7.5,34.5Q10,25,14.5,16Q19,7,28.5,7.5Q38,8,46,12.5Q54,17,60,25.5Q66,34,62.5,44.5Z" fill="#B5FFE1"/></g><g transform="translate(152.06400000000002 760.3199999999999)"><path d="M29.5,21Q26,25,22.5,27.5Q19,30,14.5,29Q10,28,5.5,25.5Q1,23,2,17.5Q3,12,6,7.5Q9,3,14,3.5Q19,4,23,6Q27,8,30,12.5Q33,17,29.5,21Z" fill="#000000" opacity="0.3"/></g><g transform="translate(135.168 811.008)"><path d="M55,44.5Q46,55,32.5,57.5Q19,60,11.5,47Q4,34,11.5,21Q19,8,33,9.5Q47,11,55.5,22.5Q64,34,55,44.5Z" fill="#65B891"/></g><g transform="translate(152.06400000000002 827.904)"><path d="M26.5,22.5Q24,28,16.5,29Q9,30,7,23.5Q5,17,7,10Q9,3,16,4.5Q23,6,26,11.5Q29,17,26.5,22.5Z" fill="#000000" opacity="0.3"/></g><g transform="translate(135.168 878.5920000000001)"><path d="M54,47Q49,60,34.5,58.5Q20,57,11,45.5Q2,34,11.5,22.5Q21,11,33.5,12Q46,13,52.5,23.5Q59,34,54,47Z" fill="#B5FFE1"/></g><g transform="translate(152.06400000000002 895.488)"><path d="M29,23Q24,29,17,28.5Q10,28,7,22.5Q4,17,7,10.5Q10,4,17,4Q24,4,29,10.5Q34,17,29,23Z" fill="#000000" opacity="0.3"/></g><g transform="translate(135.168 946.176)"><path d="M53.5,45Q47,56,34.5,55.5Q22,55,13,44.5Q4,34,12,22Q20,10,35,7.5Q50,5,55,19.5Q60,34,53.5,45Z" fill="#B5FFE1"/></g><g transform="translate(152.06400000000002 963.072)"><path d="M28.5,23.5Q24,30,17.5,28.5Q11,27,6,22Q1,17,5,9.5Q9,2,16.5,3Q24,4,28.5,10.5Q33,17,28.5,23.5Z" fill="#000000" opacity="0.3"/></g><g transform="translate(135.168 1013.76)"><path d="M53.5,45.5Q47,57,33.5,57Q20,57,12,45.5Q4,34,11,20.5Q18,7,33.5,7.5Q49,8,54.5,21Q60,34,53.5,45.5Z" fill="#4E878C"/></g><g transform="translate(152.06400000000002 1030.656)"><path d="M27,22.5Q24,28,17,28.5Q10,29,7.5,23Q5,17,7.5,10.5Q10,4,17,4.5Q24,5,27,11Q30,17,27,22.5Z" fill="#000000" opacity="0.3"/></g><g transform="translate(202.752 -33.792)"><path d="M55,47Q49,60,34.5,59Q20,58,15,46Q10,34,14,20Q18,6,33,8Q48,10,54.5,22Q61,34,55,47Z" fill="#B5FFE1"/></g><g transform="translate(219.64800000000002 -16.896)"><path d="M27.5,24Q25,31,18,29.5Q11,28,7.5,22.5Q4,17,6.5,10Q9,3,16.5,3.5Q24,4,27,10.5Q30,17,27.5,24Z" fill="#000000" opacity="0.3"/></g><g transform="translate(202.752 33.792)"><path d="M61,45Q56,56,45,61Q34,66,22,61.5Q10,57,5,45.5Q0,34,5.5,22.5Q11,11,22.5,6.5Q34,2,45.5,6Q57,10,61.5,22Q66,34,61,45Z" fill="#B5FFE1"/></g><g transform="translate(219.64800000000002 50.688)"><path d="M30,22.5Q28,28,22.5,31Q17,34,11,31.5Q5,29,3,23Q1,17,3.5,11.5Q6,6,11.5,3.5Q17,1,22.5,3.5Q28,6,30,11.5Q32,17,30,22.5Z" fill="#000000" opacity="0.3"/></g><g transform="translate(202.752 101.376)"><path d="M54,45.5Q47,57,33.5,57.5Q20,58,11.5,46Q3,34,11.5,22Q20,10,34,9Q48,8,54.5,21Q61,34,54,45.5Z" fill="#65B891"/></g><g transform="translate(219.64800000000002 118.272)"><path d="M28,22Q23,27,16.5,27.5Q10,28,5.5,22.5Q1,17,5,10Q9,3,16,4.5Q23,6,28,11.5Q33,17,28,22Z" fill="#000000" opacity="0.3"/></g><g transform="translate(202.752 168.96)"><path d="M58,47.5Q49,61,33.5,61.5Q18,62,9.5,48Q1,34,9,19.5Q17,5,33,6Q49,7,58,20.5Q67,34,58,47.5Z" fill="#65B891"/></g><g transform="translate(219.64800000000002 185.856)"><path d="M28.5,24Q25,31,17,31Q9,31,4.5,24Q0,17,4.5,10.5Q9,4,17,3.5Q25,3,28.5,10Q32,17,28.5,24Z" fill="#000000" opacity="0.3"/></g><g transform="translate(202.752 236.544)"><path d="M52.5,44Q46,54,32,57.5Q18,61,13.5,47.5Q9,34,15.5,23.5Q22,13,35.5,10.5Q49,8,54,21Q59,34,52.5,44Z" fill="#4E878C"/></g><g transform="translate(219.64800000000002 253.44)"><path d="M28,24Q25,31,17,30.5Q9,30,6,23.5Q3,17,6,10.5Q9,4,17,3.5Q25,3,28,10Q31,17,28,24Z" fill="#000000" opacity="0.3"/></g><g transform="translate(202.752 304.12800000000004)"><path d="M58,47.5Q50,61,33.5,61.5Q17,62,11.5,48Q6,34,13.5,22.5Q21,11,35.5,8.5Q50,6,58,20Q66,34,58,47.5Z" fill="#4E878C"/></g><g transform="translate(219.64800000000002 321.02400000000006)"><path d="M28.5,24Q25,31,17.5,30Q10,29,5,23Q0,17,5.5,12Q11,7,17.5,6Q24,5,28,11Q32,17,28.5,24Z" fill="#000000" opacity="0.3"/></g><g transform="translate(202.752 371.712)"><path d="M57,46Q48,58,33.5,59Q19,60,14,47Q9,34,14,21Q19,8,34,8Q49,8,57.5,21Q66,34,57,46Z" fill="#65B891"/></g><g transform="translate(219.64800000000002 388.608)"><path d="M28,23Q24,29,17,29Q10,29,6,23Q2,17,5.5,10Q9,3,16.5,4Q24,5,28,11Q32,17,28,23Z" fill="#000000" opacity="0.3"/></g><g transform="translate(202.752 439.29600000000005)"><path d="M56,45Q46,56,33.5,55.5Q21,55,10.5,44.5Q0,34,9,20Q18,6,32,9Q46,12,56,23Q66,34,56,45Z" fill="#B5FFE1"/></g><g transform="translate(219.64800000000002 456.19200000000006)"><path d="M28.5,22.5Q23,28,16,29Q9,30,6,23.5Q3,17,5.5,9.5Q8,2,16.5,2.5Q25,3,29.5,10Q34,17,28.5,22.5Z" fill="#000000" opacity="0.3"/></g><g transform="translate(202.752 506.88)"><path d="M55.5,46.5Q48,59,33,59.5Q18,60,9,47Q0,34,9.5,21Q19,8,33.5,8.5Q48,9,55.5,21.5Q63,34,55.5,46.5Z" fill="#93E5AB"/></g><g transform="translate(219.64800000000002 523.776)"><path d="M29,23Q24,29,16,30.5Q8,32,4.5,24.5Q1,17,5,10.5Q9,4,17,3.5Q25,3,29.5,10Q34,17,29,23Z" fill="#000000" opacity="0.3"/></g><g transform="translate(202.752 574.464)"><path d="M57,47Q49,60,34,60Q19,60,12,47Q5,34,12,21.5Q19,9,34,8Q49,7,57,20.5Q65,34,57,47Z" fill="#93E5AB"/></g><g transform="translate(219.64800000000002 591.36)"><path d="M29,24Q25,31,16.5,31Q8,31,4,24Q0,17,4.5,10.5Q9,4,16.5,4Q24,4,28.5,10.5Q33,17,29,24Z" fill="#000000" opacity="0.3"/></g><g transform="translate(202.752 642.048)"><path d="M57,48.5Q50,63,36,59Q22,55,15.5,44.5Q9,34,14,21.5Q19,9,35,7Q51,5,57.5,19.5Q64,34,57,48.5Z" fill="#93E5AB"/></g><g transform="translate(219.64800000000002 658.944)"><path d="M26.5,22.5Q24,28,17,28.5Q10,29,6.5,23Q3,17,6.5,11Q10,5,17,5Q24,5,26.5,11Q29,17,26.5,22.5Z" fill="#000000" opacity="0.3"/></g><g transform="translate(202.752 709.632)"><path d="M60,44Q58,54,48,56Q38,58,29.5,57Q21,56,14,49.5Q7,43,6.5,33.5Q6,24,12,15.5Q18,7,28.5,6Q39,5,47,10.5Q55,16,58.5,25Q62,34,60,44Z" fill="#B5FFE1"/></g><g transform="translate(219.64800000000002 726.5279999999999)"><path d="M29.5,21.5Q28,26,24,29.5Q20,33,15,30.5Q10,28,7,24.5Q4,21,5,17Q6,13,7.5,8.5Q9,4,14,3.5Q19,3,24.5,4.5Q30,6,30.5,11.5Q31,17,29.5,21.5Z" fill="#000000" opacity="0.3"/></g><g transform="translate(202.752 777.216)"><path d="M54.5,46Q48,58,32.5,60Q17,62,10.5,48Q4,34,13,23.5Q22,13,35,11Q48,9,54.5,21.5Q61,34,54.5,46Z" fill="#93E5AB"/></g><g transform="translate(219.64800000000002 794.112)"><path d="M27.5,24Q25,31,17,30.5Q9,30,5,23.5Q1,17,5,10.5Q9,4,16,5Q23,6,26.5,11.5Q30,17,27.5,24Z" fill="#000000" opacity="0.3"/></g><g transform="translate(202.752 844.8000000000001)"><path d="M55,45Q46,56,33,56.5Q20,57,12.5,45.5Q5,34,12.5,22Q20,10,33,11.5Q46,13,55,23.5Q64,34,55,45Z" fill="#4E878C"/></g><g transform="translate(219.64800000000002 861.696)"><path d="M26,22.5Q23,28,16,29.5Q9,31,6,24Q3,17,6.5,11Q10,5,17,4.5Q24,4,26.5,10.5Q29,17,26,22.5Z" fill="#000000" opacity="0.3"/></g><g transform="translate(202.752 912.384)"><path d="M57.5,47.5Q49,61,34.5,59Q20,57,12.5,45.5Q5,34,12.5,22Q20,10,35,7.5Q50,5,58,19.5Q66,34,57.5,47.5Z" fill="#65B891"/></g><g transform="translate(219.64800000000002 929.28)"><path d="M28.5,23Q24,29,16.5,30Q9,31,6,24Q3,17,6.5,10.5Q10,4,17.5,3Q25,2,29,9.5Q33,17,28.5,23Z" fill="#000000" opacity="0.3"/></g><g transform="translate(202.752 979.968)"><path d="M57.5,48.5Q50,63,34,62.5Q18,62,9.5,48Q1,34,9.5,20.5Q18,7,33.5,7Q49,7,57,20.5Q65,34,57.5,48.5Z" fill="#65B891"/></g><g transform="translate(219.64800000000002 996.8639999999999)"><path d="M29,23.5Q25,30,17,30.5Q9,31,5,24Q1,17,5,10Q9,3,17,3Q25,3,29,10Q33,17,29,23.5Z" fill="#000000" opacity="0.3"/></g><g transform="translate(270.336 0)"><path d="M56.5,48Q50,62,34.5,60.5Q19,59,14.5,46.5Q10,34,15.5,22.5Q21,11,35,9Q49,7,56,20.5Q63,34,56.5,48Z" fill="#4E878C"/></g><g transform="translate(287.232 16.896)"><path d="M28.5,23Q24,29,17,29Q10,29,6.5,23Q3,17,6,10.5Q9,4,16.5,4Q24,4,28.5,10.5Q33,17,28.5,23Z" fill="#000000" opacity="0.3"/></g><g transform="translate(270.336 67.584)"><path d="M54.5,44.5Q46,55,34,55Q22,55,11.5,44.5Q1,34,10,21.5Q19,9,35,7Q51,5,57,19.5Q63,34,54.5,44.5Z" fill="#B5FFE1"/></g><g transform="translate(287.232 84.48)"><path d="M28,24Q25,31,17.5,29.5Q10,28,5,22.5Q0,17,5,11Q10,5,17.5,4Q25,3,28,10Q31,17,28,24Z" fill="#000000" opacity="0.3"/></g><g transform="translate(270.336 135.168)"><path d="M52.5,45Q47,56,34,56Q21,56,13.5,45Q6,34,12,20.5Q18,7,33.5,7Q49,7,53.5,20.5Q58,34,52.5,45Z" fill="#B5FFE1"/></g><g transform="translate(287.232 152.06400000000002)"><path d="M28.5,23Q24,29,17.5,28.5Q11,28,6.5,22.5Q2,17,6,11Q10,5,17,5Q24,5,28.5,11Q33,17,28.5,23Z" fill="#000000" opacity="0.3"/></g><g transform="translate(270.336 202.752)"><path d="M58.5,48Q50,62,34,61.5Q18,61,9,47.5Q0,34,9,20.5Q18,7,34.5,6Q51,5,59,19.5Q67,34,58.5,48Z" fill="#65B891"/></g><g transform="translate(287.232 219.64800000000002)"><path d="M29,23.5Q25,30,17,30Q9,30,4.5,23.5Q0,17,4.5,10.5Q9,4,17,3.5Q25,3,29,10Q33,17,29,23.5Z" fill="#000000" opacity="0.3"/></g><g transform="translate(270.336 270.336)"><path d="M53,45Q47,56,33,57.5Q19,59,10.5,46.5Q2,34,10.5,21.5Q19,9,34.5,7.5Q50,6,54.5,20Q59,34,53,45Z" fill="#B5FFE1"/></g><g transform="translate(287.232 287.232)"><path d="M28,24Q25,31,18,29.5Q11,28,7,22.5Q3,17,5.5,9.5Q8,2,16.5,2.5Q25,3,28,10Q31,17,28,24Z" fill="#000000" opacity="0.3"/></g><g transform="translate(270.336 337.92)"><path d="M53.5,45Q47,56,32.5,58.5Q18,61,13.5,47.5Q9,34,14,21.5Q19,9,33,10Q47,11,53.5,22.5Q60,34,53.5,45Z" fill="#4E878C"/></g><g transform="translate(287.232 354.81600000000003)"><path d="M28,22.5Q23,28,16.5,28.5Q10,29,5.5,23Q1,17,6,12Q11,7,17.5,6Q24,5,28.5,11Q33,17,28,22.5Z" fill="#000000" opacity="0.3"/></g><g transform="translate(270.336 405.504)"><path d="M60.5,46.5Q54,59,40,62.5Q26,66,15,57Q4,48,4,33.5Q4,19,15.5,11.5Q27,4,40.5,6.5Q54,9,60.5,21.5Q67,34,60.5,46.5Z" fill="#93E5AB"/></g><g transform="translate(287.232 422.40000000000003)"><path d="M30,23Q27,29,20,30.5Q13,32,8,28Q3,24,3,17Q3,10,8,5.5Q13,1,20,2.5Q27,4,30,10.5Q33,17,30,23Z" fill="#000000" opacity="0.3"/></g><g transform="translate(270.336 473.088)"><path d="M56,47.5Q50,61,34.5,60.5Q19,60,10,47Q1,34,10,21Q19,8,33.5,8Q48,8,55,21Q62,34,56,47.5Z" fill="#65B891"/></g><g transform="translate(287.232 489.98400000000004)"><path d="M28.5,23Q24,29,16.5,29.5Q9,30,5,23.5Q1,17,5.5,11Q10,5,17,5Q24,5,28.5,11Q33,17,28.5,23Z" fill="#000000" opacity="0.3"/></g><g transform="translate(270.336 540.672)"><path d="M56,44.5Q46,55,32.5,57.5Q19,60,10.5,47Q2,34,10,20Q18,6,32,9.5Q46,13,56,23.5Q66,34,56,44.5Z" fill="#4E878C"/></g><g transform="translate(287.232 557.568)"><path d="M27.5,22.5Q24,28,16.5,29.5Q9,31,5,24Q1,17,5,10.5Q9,4,16,5Q23,6,27,11.5Q31,17,27.5,22.5Z" fill="#000000" opacity="0.3"/></g><g transform="translate(270.336 608.2560000000001)"><path d="M57.5,42Q53,50,45.5,54.5Q38,59,27.5,60.5Q17,62,13,52.5Q9,43,8.5,33.5Q8,24,13.5,15.5Q19,7,29,5Q39,3,47.5,9.5Q56,16,59,25Q62,34,57.5,42Z" fill="#B5FFE1"/></g><g transform="translate(287.232 625.152)"><path d="M29.5,22Q29,27,24.5,30Q20,33,14.5,32Q9,31,6.5,26.5Q4,22,4,17Q4,12,7,8.5Q10,5,15,3Q20,1,23.5,4.5Q27,8,28.5,12.5Q30,17,29.5,22Z" fill="#000000" opacity="0.3"/></g><g transform="translate(270.336 675.84)"><path d="M53.5,47Q49,60,33.5,61Q18,62,13.5,48Q9,34,15,23Q21,12,34,11.5Q47,11,52.5,22.5Q58,34,53.5,47Z" fill="#4E878C"/></g><g transform="translate(287.232 692.736)"><path d="M29.5,24Q25,31,17.5,30Q10,29,7.5,23Q5,17,7.5,11Q10,5,17,4.5Q24,4,29,10.5Q34,17,29.5,24Z" fill="#000000" opacity="0.3"/></g><g transform="translate(270.336 743.424)"><path d="M58,48Q50,62,34,61.5Q18,61,9.5,47.5Q1,34,9.5,20Q18,6,34,5.5Q50,5,58,19.5Q66,34,58,48Z" fill="#B5FFE1"/></g><g transform="translate(287.232 760.3199999999999)"><path d="M28.5,24Q25,31,17.5,30Q10,29,6,23Q2,17,5,9.5Q8,2,16.5,2.5Q25,3,28.5,10Q32,17,28.5,24Z" fill="#000000" opacity="0.3"/></g><g transform="translate(270.336 811.008)"><path d="M56.5,45Q46,56,33,57.5Q20,59,11,46.5Q2,34,11,22Q20,10,34,9.5Q48,9,57.5,21.5Q67,34,56.5,45Z" fill="#65B891"/></g><g transform="translate(287.232 827.904)"><path d="M29,24Q25,31,17.5,29.5Q10,28,7,22.5Q4,17,7,11Q10,5,17.5,4Q25,3,29,10Q33,17,29,24Z" fill="#000000" opacity="0.3"/></g><g transform="translate(270.336 878.5920000000001)"><path d="M56.5,44.5Q46,55,33,56Q20,57,14.5,45.5Q9,34,14.5,21.5Q20,9,34,9.5Q48,10,57.5,22Q67,34,56.5,44.5Z" fill="#65B891"/></g><g transform="translate(287.232 895.488)"><path d="M28,23Q24,29,17,29Q10,29,6,23Q2,17,6.5,11.5Q11,6,18,4Q25,2,28.5,9.5Q32,17,28,23Z" fill="#000000" opacity="0.3"/></g><g transform="translate(270.336 946.176)"><path d="M54.5,44.5Q46,55,33.5,55.5Q21,56,12,45Q3,34,12.5,23.5Q22,13,35.5,10Q49,7,56,20.5Q63,34,54.5,44.5Z" fill="#B5FFE1"/></g><g transform="translate(287.232 963.072)"><path d="M27,22Q23,27,16,29Q9,31,4.5,24Q0,17,5,11Q10,5,17.5,4.5Q25,4,28,10.5Q31,17,27,22Z" fill="#000000" opacity="0.3"/></g><g transform="translate(270.336 1013.76)"><path d="M53.5,45.5Q47,57,34.5,56Q22,55,15,44.5Q8,34,14,21.5Q20,9,34,9Q48,9,54,21.5Q60,34,53.5,45.5Z" fill="#4E878C"/></g><g transform="translate(287.232 1030.656)"><path d="M26,22.5Q23,28,16,29.5Q9,31,4.5,24Q0,17,4.5,10Q9,3,17,3.5Q25,4,27,10.5Q29,17,26,22.5Z" fill="#000000" opacity="0.3"/></g><g transform="translate(337.92 -33.792)"><path d="M62.5,44.5Q59,55,49,60Q39,65,29.5,61Q20,57,13,50.5Q6,44,7.5,34.5Q9,25,13.5,16Q18,7,29,4Q40,1,49.5,7Q59,13,62.5,23.5Q66,34,62.5,44.5Z" fill="#65B891"/></g><g transform="translate(354.81600000000003 -16.896)"><path d="M29.5,21.5Q28,26,23.5,28.5Q19,31,14,30.5Q9,30,5.5,26Q2,22,2.5,17Q3,12,7,9Q11,6,15.5,3.5Q20,1,23.5,5Q27,9,29,13Q31,17,29.5,21.5Z" fill="#000000" opacity="0.3"/></g><g transform="translate(337.92 33.792)"><path d="M57,44.5Q51,55,39.5,58Q28,61,18,53.5Q8,46,6,32.5Q4,19,15,10Q26,1,39,6Q52,11,57.5,22.5Q63,34,57,44.5Z" fill="#93E5AB"/></g><g transform="translate(354.81600000000003 50.688)"><path d="M29,22.5Q25,28,19.5,29.5Q14,31,9.5,27Q5,23,3.5,16.5Q2,10,7.5,5.5Q13,1,19.5,3.5Q26,6,29.5,11.5Q33,17,29,22.5Z" fill="#000000" opacity="0.3"/></g><g transform="translate(337.92 101.376)"><path d="M57,47Q49,60,33,61Q17,62,9,48Q1,34,9.5,20.5Q18,7,33.5,7Q49,7,57,20.5Q65,34,57,47Z" fill="#93E5AB"/></g><g transform="translate(354.81600000000003 118.272)"><path d="M29.5,24Q25,31,17,30.5Q9,30,4.5,23.5Q0,17,4.5,10.5Q9,4,17,3.5Q25,3,29.5,10Q34,17,29.5,24Z" fill="#000000" opacity="0.3"/></g><g transform="translate(337.92 168.96)"><path d="M54.5,47.5Q49,61,35,58.5Q21,56,13.5,45Q6,34,13,22Q20,10,34.5,8.5Q49,7,54.5,20.5Q60,34,54.5,47.5Z" fill="#B5FFE1"/></g><g transform="translate(354.81600000000003 185.856)"><path d="M28.5,23Q24,29,16.5,30Q9,31,5.5,24Q2,17,5.5,10Q9,3,16.5,4Q24,5,28.5,11Q33,17,28.5,23Z" fill="#000000" opacity="0.3"/></g><g transform="translate(337.92 236.544)"><path d="M57.5,44Q54,54,44,60.5Q34,67,24,60Q14,53,8.5,43.5Q3,34,8.5,24Q14,14,24,9.5Q34,5,44.5,9Q55,13,58,23.5Q61,34,57.5,44Z" fill="#4E878C"/></g><g transform="translate(354.81600000000003 253.44)"><path d="M30,21.5Q26,26,21.5,28Q17,30,12,28.5Q7,27,4.5,22Q2,17,4.5,12Q7,7,12,5Q17,3,21.5,5Q26,7,30,12Q34,17,30,21.5Z" fill="#000000" opacity="0.3"/></g><g transform="translate(337.92 304.12800000000004)"><path d="M57.5,47Q49,60,35,58.5Q21,57,11.5,45.5Q2,34,11,21.5Q20,9,33.5,9.5Q47,10,56.5,22Q66,34,57.5,47Z" fill="#93E5AB"/></g><g transform="translate(354.81600000000003 321.02400000000006)"><path d="M28,22Q23,27,16,29Q9,31,4.5,24Q0,17,4.5,10Q9,3,16,4.5Q23,6,28,11.5Q33,17,28,22Z" fill="#000000" opacity="0.3"/></g><g transform="translate(337.92 371.712)"><path d="M62.5,44.5Q60,55,49.5,60Q39,65,29.5,61.5Q20,58,12,51.5Q4,45,5.5,34.5Q7,24,12.5,15Q18,6,28,7Q38,8,47,11.5Q56,15,60.5,24.5Q65,34,62.5,44.5Z" fill="#93E5AB"/></g><g transform="translate(354.81600000000003 388.608)"><path d="M28.5,21.5Q27,26,23,28.5Q19,31,14.5,30Q10,29,8,25Q6,21,5,16.5Q4,12,7,8Q10,4,14.5,3.5Q19,3,24,5Q29,7,29.5,12Q30,17,28.5,21.5Z" fill="#000000" opacity="0.3"/></g><g transform="translate(337.92 439.29600000000005)"><path d="M57,45.5Q47,57,34,57Q21,57,14.5,45.5Q8,34,13.5,21Q19,8,34,8Q49,8,58,21Q67,34,57,45.5Z" fill="#93E5AB"/></g><g transform="translate(354.81600000000003 456.19200000000006)"><path d="M27,23.5Q24,30,17,29.5Q10,29,7,23Q4,17,7,11.5Q10,6,17,5Q24,4,27,10.5Q30,17,27,23.5Z" fill="#000000" opacity="0.3"/></g><g transform="translate(337.92 506.88)"><path d="M57.5,47.5Q49,61,34.5,59Q20,57,13,45.5Q6,34,13,22Q20,10,34.5,9Q49,8,57.5,21Q66,34,57.5,47.5Z" fill="#4E878C"/></g><g transform="translate(354.81600000000003 523.776)"><path d="M28,22.5Q24,28,17,28.5Q10,29,6.5,23Q3,17,6,10.5Q9,4,16.5,4Q24,4,28,10.5Q32,17,28,22.5Z" fill="#000000" opacity="0.3"/></g><g transform="translate(337.92 574.464)"><path d="M57,43.5Q53,53,43.5,60Q34,67,22,62Q10,57,5,45.5Q0,34,6.5,23.5Q13,13,23.5,9.5Q34,6,44.5,9.5Q55,13,58,23.5Q61,34,57,43.5Z" fill="#4E878C"/></g><g transform="translate(354.81600000000003 591.36)"><path d="M30,22.5Q28,28,22.5,29.5Q17,31,11,30Q5,29,3.5,23Q2,17,4.5,12Q7,7,12,4Q17,1,23,3Q29,5,30.5,11Q32,17,30,22.5Z" fill="#000000" opacity="0.3"/></g><g transform="translate(337.92 642.048)"><path d="M54,47.5Q49,61,35,58.5Q21,56,14.5,45Q8,34,14,21.5Q20,9,35,7.5Q50,6,54.5,20Q59,34,54,47.5Z" fill="#4E878C"/></g><g transform="translate(354.81600000000003 658.944)"><path d="M27,22.5Q23,28,16.5,28.5Q10,29,5.5,23Q1,17,5,10.5Q9,4,16,5.5Q23,7,27,12Q31,17,27,22.5Z" fill="#000000" opacity="0.3"/></g><g transform="translate(337.92 709.632)"><path d="M59.5,45.5Q52,57,39.5,60Q27,63,19.5,53.5Q12,44,11.5,33.5Q11,23,19,12.5Q27,2,39.5,6.5Q52,11,59.5,22.5Q67,34,59.5,45.5Z" fill="#65B891"/></g><g transform="translate(354.81600000000003 726.5279999999999)"><path d="M28,23Q27,29,20,30.5Q13,32,8.5,27.5Q4,23,3,16.5Q2,10,8,6Q14,2,20,4Q26,6,27.5,11.5Q29,17,28,23Z" fill="#000000" opacity="0.3"/></g><g transform="translate(337.92 777.216)"><path d="M55.5,46Q48,58,34,57.5Q20,57,10.5,45.5Q1,34,11,22.5Q21,11,34.5,9.5Q48,8,55.5,21Q63,34,55.5,46Z" fill="#65B891"/></g><g transform="translate(354.81600000000003 794.112)"><path d="M27.5,22.5Q23,28,16.5,28Q10,28,6,22.5Q2,17,6.5,11.5Q11,6,17.5,5.5Q24,5,28,11Q32,17,27.5,22.5Z" fill="#000000" opacity="0.3"/></g><g transform="translate(337.92 844.8000000000001)"><path d="M57,46Q53,58,39.5,62Q26,66,15,57Q4,48,4,33.5Q4,19,15.5,12.5Q27,6,39.5,8.5Q52,11,56.5,22.5Q61,34,57,46Z" fill="#B5FFE1"/></g><g transform="translate(354.81600000000003 861.696)"><path d="M28,22Q25,27,19,30Q13,33,8.5,28Q4,23,4,17Q4,11,9,7Q14,3,19.5,5Q25,7,28,12Q31,17,28,22Z" fill="#000000" opacity="0.3"/></g><g transform="translate(337.92 912.384)"><path d="M54,48Q50,62,35.5,59.5Q21,57,12,45.5Q3,34,12,22.5Q21,11,35,9.5Q49,8,53.5,21Q58,34,54,48Z" fill="#4E878C"/></g><g transform="translate(354.81600000000003 929.28)"><path d="M27,23.5Q24,30,17.5,29Q11,28,5.5,22.5Q0,17,5,11Q10,5,17,5Q24,5,27,11Q30,17,27,23.5Z" fill="#000000" opacity="0.3"/></g><g transform="translate(337.92 979.968)"><path d="M54.5,47.5Q49,61,34.5,59.5Q20,58,11,46Q2,34,11,22Q20,10,33.5,10Q47,10,53.5,22Q60,34,54.5,47.5Z" fill="#4E878C"/></g><g transform="translate(354.81600000000003 996.8639999999999)"><path d="M28.5,24Q25,31,18,29Q11,27,7.5,22Q4,17,7.5,11.5Q11,6,17.5,5Q24,4,28,10.5Q32,17,28.5,24Z" fill="#000000" opacity="0.3"/></g><g transform="translate(405.504 0)"><path d="M52.5,45.5Q47,57,33,58Q19,59,9.5,46.5Q0,34,9.5,21Q19,8,34,8Q49,8,53.5,21Q58,34,52.5,45.5Z" fill="#93E5AB"/></g><g transform="translate(422.40000000000003 16.896)"><path d="M27.5,23Q24,29,16.5,30Q9,31,5.5,24Q2,17,6.5,12Q11,7,17.5,6Q24,5,27.5,11Q31,17,27.5,23Z" fill="#000000" opacity="0.3"/></g><g transform="translate(405.504 67.584)"><path d="M59.5,44.5Q59,55,48.5,56.5Q38,58,28.5,58.5Q19,59,14.5,51Q10,43,9,33.5Q8,24,14,16.5Q20,9,29,9.5Q38,10,45,14Q52,18,56,26Q60,34,59.5,44.5Z" fill="#93E5AB"/></g><g transform="translate(422.40000000000003 84.48)"><path d="M29,21.5Q28,26,23.5,27.5Q19,29,14.5,28.5Q10,28,6.5,25Q3,22,4.5,17.5Q6,13,8,9Q10,5,15,3.5Q20,2,23.5,5.5Q27,9,28.5,13Q30,17,29,21.5Z" fill="#000000" opacity="0.3"/></g><g transform="translate(405.504 135.168)"><path d="M58,45.5Q57,57,45.5,62Q34,67,25,59Q16,51,12.5,42.5Q9,34,11.5,24Q14,14,24,8Q34,2,45,6.5Q56,11,57.5,22.5Q59,34,58,45.5Z" fill="#65B891"/></g><g transform="translate(422.40000000000003 152.06400000000002)"><path d="M29.5,22Q27,27,22,29.5Q17,32,12,29.5Q7,27,6,22Q5,17,5,11Q5,5,11,3.5Q17,2,22,4.5Q27,7,29.5,12Q32,17,29.5,22Z" fill="#000000" opacity="0.3"/></g><g transform="translate(405.504 202.752)"><path d="M54.5,47Q49,60,34.5,59Q20,58,10.5,46Q1,34,11,23Q21,12,35,9.5Q49,7,54.5,20.5Q60,34,54.5,47Z" fill="#B5FFE1"/></g><g transform="translate(422.40000000000003 219.64800000000002)"><path d="M27.5,23Q24,29,17.5,28Q11,27,6.5,22Q2,17,6.5,11.5Q11,6,18,4.5Q25,3,28,10Q31,17,27.5,23Z" fill="#000000" opacity="0.3"/></g><g transform="translate(405.504 270.336)"><path d="M58,43Q56,52,47.5,58Q39,64,29.5,61Q20,58,13,51Q6,44,5,33.5Q4,23,11,14.5Q18,6,28.5,5Q39,4,47.5,10Q56,16,58,25Q60,34,58,43Z" fill="#B5FFE1"/></g><g transform="translate(422.40000000000003 287.232)"><path d="M28.5,21.5Q28,26,23.5,28.5Q19,31,14,31Q9,31,5,27Q1,23,2.5,17.5Q4,12,7.5,9Q11,6,15.5,3.5Q20,1,24.5,3.5Q29,6,29,11.5Q29,17,28.5,21.5Z" fill="#000000" opacity="0.3"/></g><g transform="translate(405.504 337.92)"><path d="M59.5,45Q56,56,45,59.5Q34,63,24,58Q14,53,11.5,43.5Q9,34,11.5,24Q14,14,24,11.5Q34,9,44.5,11Q55,13,59,23.5Q63,34,59.5,45Z" fill="#65B891"/></g><g transform="translate(422.40000000000003 354.81600000000003)"><path d="M27,21Q25,25,21,28.5Q17,32,12.5,29Q8,26,4,21.5Q0,17,4,12.5Q8,8,12.5,4.5Q17,1,21.5,4.5Q26,8,27.5,12.5Q29,17,27,21Z" fill="#000000" opacity="0.3"/></g><g transform="translate(405.504 405.504)"><path d="M60.5,43.5Q57,53,48,57Q39,61,28.5,61Q18,61,11.5,52.5Q5,44,6,34Q7,24,12.5,15Q18,6,28.5,6.5Q39,7,47.5,11Q56,15,60,24.5Q64,34,60.5,43.5Z" fill="#65B891"/></g><g transform="translate(422.40000000000003 422.40000000000003)"><path d="M30.5,21.5Q28,26,23.5,29Q19,32,14.5,30.5Q10,29,7,25.5Q4,22,2.5,16.5Q1,11,5.5,7.5Q10,4,15,3Q20,2,25,4Q30,6,31.5,11.5Q33,17,30.5,21.5Z" fill="#000000" opacity="0.3"/></g><g transform="translate(405.504 473.088)"><path d="M61,44.5Q55,55,44.5,58.5Q34,62,23.5,58Q13,54,7.5,44Q2,34,8,24Q14,14,24,11.5Q34,9,43.5,11.5Q53,14,60,24Q67,34,61,44.5Z" fill="#B5FFE1"/></g><g transform="translate(422.40000000000003 489.98400000000004)"><path d="M30.5,23Q29,29,23,30Q17,31,12.5,28Q8,25,6,21Q4,17,5,11.5Q6,6,11.5,4Q17,2,21.5,5Q26,8,29,12.5Q32,17,30.5,23Z" fill="#000000" opacity="0.3"/></g><g transform="translate(405.504 540.672)"><path d="M58,47.5Q50,61,33.5,61.5Q17,62,11.5,48Q6,34,13.5,22.5Q21,11,35.5,8.5Q50,6,58,20Q66,34,58,47.5Z" fill="#B5FFE1"/></g><g transform="translate(422.40000000000003 557.568)"><path d="M27,24Q25,31,18,29Q11,27,7.5,22Q4,17,6.5,10.5Q9,4,16.5,4.5Q24,5,26.5,11Q29,17,27,24Z" fill="#000000" opacity="0.3"/></g><g transform="translate(405.504 608.2560000000001)"><path d="M54.5,45Q47,56,32.5,58.5Q18,61,11,47.5Q4,34,11,20.5Q18,7,34,6Q50,5,56,19.5Q62,34,54.5,45Z" fill="#93E5AB"/></g><g transform="translate(422.40000000000003 625.152)"><path d="M28,24Q25,31,17,31Q9,31,6,24Q3,17,6,10Q9,3,16.5,4Q24,5,27.5,11Q31,17,28,24Z" fill="#000000" opacity="0.3"/></g><g transform="translate(405.504 675.84)"><path d="M55,43Q52,52,43,58Q34,64,23.5,59Q13,54,11.5,44Q10,34,12,24Q14,14,24,10Q34,6,44,10Q54,14,56,24Q58,34,55,43Z" fill="#B5FFE1"/></g><g transform="translate(422.40000000000003 692.736)"><path d="M28,22Q27,27,22,28Q17,29,12.5,27Q8,25,6,21Q4,17,6,12.5Q8,8,12.5,6Q17,4,22,5.5Q27,7,28,12Q29,17,28,22Z" fill="#000000" opacity="0.3"/></g><g transform="translate(405.504 743.424)"><path d="M60,46Q53,58,39.5,62Q26,66,15.5,57Q5,48,5.5,34Q6,20,16.5,11.5Q27,3,40,6Q53,9,60,21.5Q67,34,60,46Z" fill="#4E878C"/></g><g transform="translate(422.40000000000003 760.3199999999999)"><path d="M30,23.5Q27,30,20,31.5Q13,33,8,28.5Q3,24,2.5,17Q2,10,7.5,6Q13,2,20,3.5Q27,5,30,11Q33,17,30,23.5Z" fill="#000000" opacity="0.3"/></g><g transform="translate(405.504 811.008)"><path d="M56.5,45Q47,56,32,59Q17,62,11,48Q5,34,13,22.5Q21,11,35.5,8.5Q50,6,58,20Q66,34,56.5,45Z" fill="#B5FFE1"/></g><g transform="translate(422.40000000000003 827.904)"><path d="M28.5,22.5Q23,28,16,29Q9,30,6,23.5Q3,17,5.5,9.5Q8,2,16.5,2.5Q25,3,29.5,10Q34,17,28.5,22.5Z" fill="#000000" opacity="0.3"/></g><g transform="translate(405.504 878.5920000000001)"><path d="M55,47Q49,60,34,59.5Q19,59,11,46.5Q3,34,11,21Q19,8,33.5,8Q48,8,54.5,21Q61,34,55,47Z" fill="#B5FFE1"/></g><g transform="translate(422.40000000000003 895.488)"><path d="M28,24Q25,31,17.5,30Q10,29,6,23Q2,17,5.5,10Q9,3,16.5,3.5Q24,4,27.5,10.5Q31,17,28,24Z" fill="#000000" opacity="0.3"/></g><g transform="translate(405.504 946.176)"><path d="M54.5,48Q50,62,33.5,62Q17,62,10,48Q3,34,10.5,20Q18,6,34,6Q50,6,54.5,20Q59,34,54.5,48Z" fill="#4E878C"/></g><g transform="translate(422.40000000000003 963.072)"><path d="M26,22Q23,27,16,28.5Q9,30,5.5,23.5Q2,17,6,11Q10,5,17.5,4Q25,3,27,10Q29,17,26,22Z" fill="#000000" opacity="0.3"/></g><g transform="translate(405.504 1013.76)"><path d="M57,45.5Q47,57,34,57Q21,57,14.5,45.5Q8,34,13.5,21Q19,8,34,8Q49,8,58,21Q67,34,57,45.5Z" fill="#65B891"/></g><g transform="translate(422.40000000000003 1030.656)"><path d="M26,22.5Q23,28,15.5,30Q8,32,4,24.5Q0,17,5,11Q10,5,17.5,4Q25,3,27,10Q29,17,26,22.5Z" fill="#000000" opacity="0.3"/></g><g transform="translate(473.088 -33.792)"><path d="M57,47.5Q49,61,35,59Q21,57,13,45.5Q5,34,13.5,23.5Q22,13,34.5,12Q47,11,56,22.5Q65,34,57,47.5Z" fill="#65B891"/></g><g transform="translate(489.98400000000004 -16.896)"><path d="M29.5,23.5Q25,30,17,30Q9,30,6.5,23.5Q4,17,6.5,10.5Q9,4,16.5,4.5Q24,5,29,11Q34,17,29.5,23.5Z" fill="#000000" opacity="0.3"/></g><g transform="translate(473.088 33.792)"><path d="M57,47Q49,60,34,60Q19,60,10,47Q1,34,9,19.5Q17,5,33.5,5.5Q50,6,57.5,20Q65,34,57,47Z" fill="#4E878C"/></g><g transform="translate(489.98400000000004 50.688)"><path d="M29.5,24Q25,31,17,31Q9,31,5,24Q1,17,5,10Q9,3,17,2.5Q25,2,29.5,9.5Q34,17,29.5,24Z" fill="#000000" opacity="0.3"/></g><g transform="translate(473.088 101.376)"><path d="M57.5,48Q50,62,33.5,62.5Q17,63,8.5,48.5Q0,34,9,20.5Q18,7,33.5,7Q49,7,57,20.5Q65,34,57.5,48Z" fill="#4E878C"/></g><g transform="translate(489.98400000000004 118.272)"><path d="M28.5,24Q25,31,17,30.5Q9,30,5,23.5Q1,17,5,10Q9,3,17,3Q25,3,28.5,10Q32,17,28.5,24Z" fill="#000000" opacity="0.3"/></g><g transform="translate(473.088 168.96)"><path d="M57.5,48Q50,62,33.5,62Q17,62,9.5,48Q2,34,10,20.5Q18,7,34,6Q50,5,57.5,19.5Q65,34,57.5,48Z" fill="#65B891"/></g><g transform="translate(489.98400000000004 185.856)"><path d="M29,23.5Q25,30,17,30Q9,30,5.5,23.5Q2,17,5.5,9.5Q9,2,17,2.5Q25,3,29,10Q33,17,29,23.5Z" fill="#000000" opacity="0.3"/></g><g transform="translate(473.088 236.544)"><path d="M58.5,45Q51,56,39,59Q27,62,18.5,53.5Q10,45,8.5,33Q7,21,17,12.5Q27,4,41,6Q55,8,60.5,21Q66,34,58.5,45Z" fill="#4E878C"/></g><g transform="translate(489.98400000000004 253.44)"><path d="M27.5,22.5Q26,28,19.5,30Q13,32,9,27.5Q5,23,3.5,16.5Q2,10,8,7.5Q14,5,20.5,4.5Q27,4,28,10.5Q29,17,27.5,22.5Z" fill="#000000" opacity="0.3"/></g><g transform="translate(473.088 304.12800000000004)"><path d="M52,44.5Q46,55,33.5,55.5Q21,56,13,45Q5,34,12,21Q19,8,33.5,8.5Q48,9,53,21.5Q58,34,52,44.5Z" fill="#B5FFE1"/></g><g transform="translate(489.98400000000004 321.02400000000006)"><path d="M28,22.5Q24,28,16.5,29.5Q9,31,6,24Q3,17,6.5,11.5Q10,6,17,5.5Q24,5,28,11Q32,17,28,22.5Z" fill="#000000" opacity="0.3"/></g><g transform="translate(473.088 371.712)"><path d="M58.5,42.5Q55,51,47,57.5Q39,64,29,62Q19,60,13.5,51.5Q8,43,5.5,33Q3,23,11,15Q19,7,29.5,4Q40,1,48.5,8Q57,15,59.5,24.5Q62,34,58.5,42.5Z" fill="#4E878C"/></g><g transform="translate(489.98400000000004 388.608)"><path d="M31,21.5Q28,26,23.5,29Q19,32,14,31.5Q9,31,6,26.5Q3,22,3.5,17Q4,12,6.5,8Q9,4,14.5,3Q20,2,24,5Q28,8,31,12.5Q34,17,31,21.5Z" fill="#000000" opacity="0.3"/></g><g transform="translate(473.088 439.29600000000005)"><path d="M57.5,46Q48,58,32.5,60.5Q17,63,10,48.5Q3,34,11,21Q19,8,32.5,10Q46,12,56.5,23Q67,34,57.5,46Z" fill="#65B891"/></g><g transform="translate(489.98400000000004 456.19200000000006)"><path d="M27.5,24Q25,31,17,31Q9,31,5.5,24Q2,17,5.5,10Q9,3,17,3Q25,3,27.5,10Q30,17,27.5,24Z" fill="#000000" opacity="0.3"/></g><g transform="translate(473.088 506.88)"><path d="M52.5,44.5Q46,55,33,56.5Q20,58,13.5,46Q7,34,14,23Q21,12,35.5,8.5Q50,5,54.5,19.5Q59,34,52.5,44.5Z" fill="#B5FFE1"/></g><g transform="translate(489.98400000000004 523.776)"><path d="M27.5,24Q25,31,17.5,29.5Q10,28,7,22.5Q4,17,6.5,10Q9,3,16,4Q23,5,26.5,11Q30,17,27.5,24Z" fill="#000000" opacity="0.3"/></g><g transform="translate(473.088 574.464)"><path d="M58,45.5Q52,57,39.5,60.5Q27,64,17.5,55Q8,46,6,32.5Q4,19,15.5,11.5Q27,4,39.5,7.5Q52,11,58,22.5Q64,34,58,45.5Z" fill="#B5FFE1"/></g><g transform="translate(489.98400000000004 591.36)"><path d="M29,23Q26,29,19.5,30.5Q13,32,8.5,27.5Q4,23,4.5,17Q5,11,9,5.5Q13,0,20,2Q27,4,29.5,10.5Q32,17,29,23Z" fill="#000000" opacity="0.3"/></g><g transform="translate(473.088 642.048)"><path d="M58,47.5Q50,61,34,61Q18,61,10,47.5Q2,34,11,22Q20,10,34,9.5Q48,9,57,21.5Q66,34,58,47.5Z" fill="#B5FFE1"/></g><g transform="translate(489.98400000000004 658.944)"><path d="M29,23Q24,29,16.5,29.5Q9,30,4.5,23.5Q0,17,4.5,10.5Q9,4,16.5,4Q24,4,29,10.5Q34,17,29,23Z" fill="#000000" opacity="0.3"/></g><g transform="translate(473.088 709.632)"><path d="M58,48Q50,62,34,62Q18,62,9.5,48Q1,34,9,19.5Q17,5,33.5,5.5Q50,6,58,20Q66,34,58,48Z" fill="#4E878C"/></g><g transform="translate(489.98400000000004 726.5279999999999)"><path d="M29,24Q25,31,17,31Q9,31,5,24Q1,17,5,10.5Q9,4,17,3.5Q25,3,29,10Q33,17,29,24Z" fill="#000000" opacity="0.3"/></g><g transform="translate(473.088 777.216)"><path d="M56.5,48.5Q51,63,34.5,62Q18,61,9.5,47.5Q1,34,10,21Q19,8,33.5,8.5Q48,9,55,21.5Q62,34,56.5,48.5Z" fill="#4E878C"/></g><g transform="translate(489.98400000000004 794.112)"><path d="M28,22.5Q23,28,17,28Q11,28,8,22.5Q5,17,7,10Q9,3,16.5,4Q24,5,28.5,11Q33,17,28,22.5Z" fill="#000000" opacity="0.3"/></g><g transform="translate(473.088 844.8000000000001)"><path d="M54,45.5Q47,57,33,58.5Q19,60,14.5,47Q10,34,15.5,23Q21,12,33.5,12Q46,12,53.5,23Q61,34,54,45.5Z" fill="#4E878C"/></g><g transform="translate(489.98400000000004 861.696)"><path d="M27.5,23Q24,29,16.5,29.5Q9,30,7,23.5Q5,17,7.5,11.5Q10,6,16.5,6Q23,6,27,11.5Q31,17,27.5,23Z" fill="#000000" opacity="0.3"/></g><g transform="translate(473.088 912.384)"><path d="M59.5,45Q56,56,45,59Q34,62,25.5,56.5Q17,51,9,42.5Q1,34,8,24.5Q15,15,24.5,10Q34,5,44,9.5Q54,14,58.5,24Q63,34,59.5,45Z" fill="#B5FFE1"/></g><g transform="translate(489.98400000000004 929.28)"><path d="M30,22Q27,27,22,30.5Q17,34,12.5,30Q8,26,5,21.5Q2,17,4.5,12Q7,7,12,4Q17,1,21.5,4.5Q26,8,29.5,12.5Q33,17,30,22Z" fill="#000000" opacity="0.3"/></g><g transform="translate(473.088 979.968)"><path d="M57.5,46.5Q48,59,34,58.5Q20,58,13,46Q6,34,12,20.5Q18,7,33.5,7.5Q49,8,58,21Q67,34,57.5,46.5Z" fill="#4E878C"/></g><g transform="translate(489.98400000000004 996.8639999999999)"><path d="M28,23.5Q25,30,17.5,29.5Q10,29,5,23Q0,17,4.5,10Q9,3,16.5,4Q24,5,27.5,11Q31,17,28,23.5Z" fill="#000000" opacity="0.3"/></g><g transform="translate(540.672 0)"><path d="M56,48Q50,62,35,60Q20,58,11,46Q2,34,10.5,21Q19,8,33.5,9Q48,10,55,22Q62,34,56,48Z" fill="#4E878C"/></g><g transform="translate(557.568 16.896)"><path d="M27.5,22.5Q24,28,16.5,29Q9,30,6,23.5Q3,17,6,10Q9,3,17,3Q25,3,28,10Q31,17,27.5,22.5Z" fill="#000000" opacity="0.3"/></g><g transform="translate(540.672 67.584)"><path d="M59.5,47Q54,60,40.5,61.5Q27,63,18,54.5Q9,46,7,33Q5,20,15.5,11Q26,2,40,5.5Q54,9,59.5,21.5Q65,34,59.5,47Z" fill="#4E878C"/></g><g transform="translate(557.568 84.48)"><path d="M29,22Q25,27,19.5,29Q14,31,8.5,27.5Q3,24,3,17Q3,10,8,5.5Q13,1,19.5,3.5Q26,6,29.5,11.5Q33,17,29,22Z" fill="#000000" opacity="0.3"/></g><g transform="translate(540.672 135.168)"><path d="M53.5,44.5Q46,55,33.5,56Q21,57,12,45.5Q3,34,11.5,21.5Q20,9,34.5,8Q49,7,55,20.5Q61,34,53.5,44.5Z" fill="#65B891"/></g><g transform="translate(557.568 152.06400000000002)"><path d="M28,22Q23,27,16.5,27.5Q10,28,5.5,22.5Q1,17,5,10Q9,3,16,4.5Q23,6,28,11.5Q33,17,28,22Z" fill="#000000" opacity="0.3"/></g><g transform="translate(540.672 202.752)"><path d="M56,46Q53,58,40.5,58Q28,58,19,51.5Q10,45,9,33.5Q8,22,17.5,12Q27,2,40.5,5.5Q54,9,56.5,21.5Q59,34,56,46Z" fill="#B5FFE1"/></g><g transform="translate(557.568 219.64800000000002)"><path d="M29,22.5Q26,28,20,29.5Q14,31,9.5,27Q5,23,4,16.5Q3,10,8,5.5Q13,1,19.5,3.5Q26,6,29,11.5Q32,17,29,22.5Z" fill="#000000" opacity="0.3"/></g><g transform="translate(540.672 270.336)"><path d="M62.5,44Q57,54,48,59.5Q39,65,28,64Q17,63,10.5,54Q4,45,4,34Q4,23,10.5,14Q17,5,28,4Q39,3,48,8.5Q57,14,62.5,24Q68,34,62.5,44Z" fill="#93E5AB"/></g><g transform="translate(557.568 287.232)"><path d="M31,22Q29,27,24.5,29.5Q20,32,14.5,31.5Q9,31,5.5,26.5Q2,22,2,16.5Q2,11,5.5,7Q9,3,14.5,2Q20,1,24.5,4Q29,7,31,12Q33,17,31,22Z" fill="#000000" opacity="0.3"/></g><g transform="translate(540.672 337.92)"><path d="M60.5,44.5Q59,55,49,59.5Q39,64,29,61.5Q19,59,11,52Q3,45,2.5,33.5Q2,22,9.5,13.5Q17,5,28,5Q39,5,49,9Q59,13,60.5,23.5Q62,34,60.5,44.5Z" fill="#B5FFE1"/></g><g transform="translate(557.568 354.81600000000003)"><path d="M30.5,22.5Q30,28,25,30.5Q20,33,15,31Q10,29,6,25.5Q2,22,2,17Q2,12,6,8.5Q10,5,15,3.5Q20,2,24,5Q28,8,29.5,12.5Q31,17,30.5,22.5Z" fill="#000000" opacity="0.3"/></g><g transform="translate(540.672 405.504)"><path d="M57,46Q48,58,33.5,58.5Q19,59,11.5,46.5Q4,34,12,22Q20,10,35,8Q50,6,58,20Q66,34,57,46Z" fill="#4E878C"/></g><g transform="translate(557.568 422.40000000000003)"><path d="M28,24Q25,31,17,30.5Q9,30,5.5,23.5Q2,17,5.5,10Q9,3,16.5,3.5Q24,4,27.5,10.5Q31,17,28,24Z" fill="#000000" opacity="0.3"/></g><g transform="translate(540.672 473.088)"><path d="M58,45.5Q53,57,40,61Q27,65,17.5,55.5Q8,46,9,34Q10,22,19,15Q28,8,41,8Q54,8,58.5,21Q63,34,58,45.5Z" fill="#4E878C"/></g><g transform="translate(557.568 489.98400000000004)"><path d="M29,23Q26,29,20,29.5Q14,30,8.5,26.5Q3,23,4.5,17.5Q6,12,9.5,6.5Q13,1,18.5,4.5Q24,8,28,12.5Q32,17,29,23Z" fill="#000000" opacity="0.3"/></g><g transform="translate(540.672 540.672)"><path d="M56,46.5Q48,59,33.5,59.5Q19,60,10,47Q1,34,9,19.5Q17,5,32,8Q47,11,55.5,22.5Q64,34,56,46.5Z" fill="#93E5AB"/></g><g transform="translate(557.568 557.568)"><path d="M28,23Q24,29,16.5,30Q9,31,6,24Q3,17,7,11.5Q11,6,17.5,5.5Q24,5,28,11Q32,17,28,23Z" fill="#000000" opacity="0.3"/></g><g transform="translate(540.672 608.2560000000001)"><path d="M56,47Q49,60,34,60Q19,60,11.5,47Q4,34,11,20.5Q18,7,33,8Q48,9,55.5,21.5Q63,34,56,47Z" fill="#93E5AB"/></g><g transform="translate(557.568 625.152)"><path d="M28.5,24Q25,31,17,31Q9,31,5.5,24Q2,17,5.5,10Q9,3,17,3Q25,3,28.5,10Q32,17,28.5,24Z" fill="#000000" opacity="0.3"/></g><g transform="translate(540.672 675.84)"><path d="M55,46.5Q48,59,32.5,61Q17,63,10.5,48.5Q4,34,11,20Q18,6,33,8Q48,10,55,22Q62,34,55,46.5Z" fill="#65B891"/></g><g transform="translate(557.568 692.736)"><path d="M27,23.5Q24,30,16.5,30.5Q9,31,4.5,24Q0,17,4.5,10Q9,3,16.5,3.5Q24,4,27,10.5Q30,17,27,23.5Z" fill="#000000" opacity="0.3"/></g><g transform="translate(540.672 743.424)"><path d="M56,44.5Q46,55,33.5,55.5Q21,56,12,45Q3,34,10.5,20Q18,6,32,9Q46,12,56,23Q66,34,56,44.5Z" fill="#B5FFE1"/></g><g transform="translate(557.568 760.3199999999999)"><path d="M27.5,22Q23,27,16,28.5Q9,30,5,23.5Q1,17,5,10.5Q9,4,16,5Q23,6,27.5,11.5Q32,17,27.5,22Z" fill="#000000" opacity="0.3"/></g><g transform="translate(540.672 811.008)"><path d="M54.5,46.5Q48,59,34,58.5Q20,58,12.5,46Q5,34,13,22.5Q21,11,35.5,8.5Q50,6,55.5,20Q61,34,54.5,46.5Z" fill="#65B891"/></g><g transform="translate(557.568 827.904)"><path d="M27.5,23.5Q25,30,17,30.5Q9,31,6,24Q3,17,6.5,11Q10,5,17.5,4Q25,3,27.5,10Q30,17,27.5,23.5Z" fill="#000000" opacity="0.3"/></g><g transform="translate(540.672 878.5920000000001)"><path d="M60,44Q54,54,44,59Q34,64,25,57.5Q16,51,10,42.5Q4,34,8.5,23.5Q13,13,23.5,10.5Q34,8,45,9.5Q56,11,61,22.5Q66,34,60,44Z" fill="#B5FFE1"/></g><g transform="translate(557.568 895.488)"><path d="M29.5,22.5Q28,28,22.5,31Q17,34,12,30.5Q7,27,4,22Q1,17,4,12Q7,7,12,4.5Q17,2,21.5,4.5Q26,7,28.5,12Q31,17,29.5,22.5Z" fill="#000000" opacity="0.3"/></g><g transform="translate(540.672 946.176)"><path d="M60,46Q53,58,39.5,62Q26,66,15,57Q4,48,4.5,34Q5,20,16,11Q27,2,40,5.5Q53,9,60,21.5Q67,34,60,46Z" fill="#65B891"/></g><g transform="translate(557.568 963.072)"><path d="M30,23.5Q27,30,20,31Q13,32,8,28Q3,24,2.5,17Q2,10,7.5,5.5Q13,1,20,3Q27,5,30,11Q33,17,30,23.5Z" fill="#000000" opacity="0.3"/></g><g transform="translate(540.672 1013.76)"><path d="M55.5,45.5Q47,57,33.5,57.5Q20,58,15,46Q10,34,14.5,21.5Q19,9,34,8Q49,7,56.5,20.5Q64,34,55.5,45.5Z" fill="#4E878C"/></g><g transform="translate(557.568 1030.656)"><path d="M27.5,24Q25,31,18,29Q11,27,6.5,22Q2,17,5.5,9.5Q9,2,16,4Q23,6,26.5,11.5Q30,17,27.5,24Z" fill="#000000" opacity="0.3"/></g><g transform="translate(608.2560000000001 -33.792)"><path d="M53,45.5Q47,57,32.5,59Q18,61,11,47.5Q4,34,11.5,21.5Q19,9,35,7Q51,5,55,19.5Q59,34,53,45.5Z" fill="#4E878C"/></g><g transform="translate(625.152 -16.896)"><path d="M29,24Q25,31,17,31Q9,31,6,24Q3,17,6.5,11.5Q10,6,17.5,4.5Q25,3,29,10Q33,17,29,24Z" fill="#000000" opacity="0.3"/></g><g transform="translate(608.2560000000001 33.792)"><path d="M55.5,44.5Q46,55,32,58Q18,61,13.5,47.5Q9,34,14,21Q19,8,33,9.5Q47,11,56,22.5Q65,34,55.5,44.5Z" fill="#B5FFE1"/></g><g transform="translate(625.152 50.688)"><path d="M26.5,22.5Q23,28,16.5,28.5Q10,29,5.5,23Q1,17,6,11.5Q11,6,18,4.5Q25,3,27.5,10Q30,17,26.5,22.5Z" fill="#000000" opacity="0.3"/></g><g transform="translate(608.2560000000001 101.376)"><path d="M57.5,46.5Q48,59,33,60Q18,61,10.5,47.5Q3,34,11,21Q19,8,33,9.5Q47,11,57,22.5Q67,34,57.5,46.5Z" fill="#B5FFE1"/></g><g transform="translate(625.152 118.272)"><path d="M27,23.5Q24,30,17.5,28.5Q11,27,6,22Q1,17,6,11.5Q11,6,17.5,5.5Q24,5,27,11Q30,17,27,23.5Z" fill="#000000" opacity="0.3"/></g><g transform="translate(608.2560000000001 168.96)"><path d="M58,43.5Q49,53,38,58Q27,63,18,54.5Q9,46,6,32.5Q3,19,15,10.5Q27,2,38,8Q49,14,58,24Q67,34,58,43.5Z" fill="#4E878C"/></g><g transform="translate(625.152 185.856)"><path d="M27.5,21.5Q24,26,18.5,29.5Q13,33,7.5,28.5Q2,24,3.5,17.5Q5,11,9,6.5Q13,2,19.5,3.5Q26,5,28.5,11Q31,17,27.5,21.5Z" fill="#000000" opacity="0.3"/></g><g transform="translate(608.2560000000001 236.544)"><path d="M54.5,48.5Q51,63,36,59.5Q21,56,13,45Q5,34,12.5,22.5Q20,11,33,12Q46,13,52,23.5Q58,34,54.5,48.5Z" fill="#B5FFE1"/></g><g transform="translate(625.152 253.44)"><path d="M26.5,23Q24,29,16,30Q8,31,6,24Q4,17,7,11Q10,5,17,5Q24,5,26.5,11Q29,17,26.5,23Z" fill="#000000" opacity="0.3"/></g><g transform="translate(608.2560000000001 304.12800000000004)"><path d="M59,44.5Q60,55,49,57.5Q38,60,28.5,59.5Q19,59,11,52Q3,45,3.5,34Q4,23,13,18Q22,13,30,11Q38,9,47,12Q56,15,57,24.5Q58,34,59,44.5Z" fill="#93E5AB"/></g><g transform="translate(625.152 321.02400000000006)"><path d="M29.5,21Q27,25,23,27Q19,29,14,29.5Q9,30,6,26Q3,22,3.5,17Q4,12,6.5,8Q9,4,14,4.5Q19,5,23.5,6.5Q28,8,30,12.5Q32,17,29.5,21Z" fill="#000000" opacity="0.3"/></g><g transform="translate(608.2560000000001 371.712)"><path d="M59,42.5Q55,51,47,57.5Q39,64,28.5,63Q18,62,14.5,52Q11,42,8,32.5Q5,23,12,16Q19,9,29,6Q39,3,48.5,8Q58,13,60.5,23.5Q63,34,59,42.5Z" fill="#93E5AB"/></g><g transform="translate(625.152 388.608)"><path d="M30,22.5Q30,28,25,30.5Q20,33,14.5,31.5Q9,30,6.5,25.5Q4,21,4,16.5Q4,12,7,8.5Q10,5,15,3Q20,1,25,3.5Q30,6,30,11.5Q30,17,30,22.5Z" fill="#000000" opacity="0.3"/></g><g transform="translate(608.2560000000001 439.29600000000005)"><path d="M57,48Q50,62,33.5,62.5Q17,63,10.5,48.5Q4,34,10.5,19.5Q17,5,33,6Q49,7,56.5,20.5Q64,34,57,48Z" fill="#B5FFE1"/></g><g transform="translate(625.152 456.19200000000006)"><path d="M29,23.5Q25,30,17.5,29.5Q10,29,6,23Q2,17,5.5,10.5Q9,4,17,3.5Q25,3,29,10Q33,17,29,23.5Z" fill="#000000" opacity="0.3"/></g><g transform="translate(608.2560000000001 506.88)"><path d="M55,47.5Q50,61,34.5,60Q19,59,13,46.5Q7,34,12.5,20.5Q18,7,34,6.5Q50,6,55,20Q60,34,55,47.5Z" fill="#B5FFE1"/></g><g transform="translate(625.152 523.776)"><path d="M27,22Q23,27,15.5,29.5Q8,32,6.5,24.5Q5,17,7.5,11Q10,5,17,5Q24,5,27.5,11Q31,17,27,22Z" fill="#000000" opacity="0.3"/></g><g transform="translate(608.2560000000001 574.464)"><path d="M53,46.5Q48,59,33,60Q18,61,12.5,47.5Q7,34,14,23Q21,12,36,8.5Q51,5,54.5,19.5Q58,34,53,46.5Z" fill="#93E5AB"/></g><g transform="translate(625.152 591.36)"><path d="M28,22.5Q23,28,16,29Q9,30,5.5,23.5Q2,17,6.5,11.5Q11,6,17.5,5.5Q24,5,28.5,11Q33,17,28,22.5Z" fill="#000000" opacity="0.3"/></g><g transform="translate(608.2560000000001 642.048)"><path d="M53.5,47Q49,60,34.5,59Q20,58,13,46Q6,34,12,20.5Q18,7,32.5,8.5Q47,10,52.5,22Q58,34,53.5,47Z" fill="#65B891"/></g><g transform="translate(625.152 658.944)"><path d="M27.5,23.5Q25,30,17.5,29.5Q10,29,5,23Q0,17,4.5,10Q9,3,16,4Q23,5,26.5,11Q30,17,27.5,23.5Z" fill="#000000" opacity="0.3"/></g><g transform="translate(608.2560000000001 709.632)"><path d="M58.5,47.5Q50,61,35,59.5Q20,58,15,46Q10,34,15,22Q20,10,34.5,9Q49,8,58,21Q67,34,58.5,47.5Z" fill="#B5FFE1"/></g><g transform="translate(625.152 726.5279999999999)"><path d="M26.5,23Q24,29,17.5,28.5Q11,28,6,22.5Q1,17,5,10Q9,3,16.5,4Q24,5,26.5,11Q29,17,26.5,23Z" fill="#000000" opacity="0.3"/></g><g transform="translate(608.2560000000001 777.216)"><path d="M55.5,46Q48,58,33,60Q18,62,12.5,48Q7,34,13,21.5Q19,9,33.5,9.5Q48,10,55.5,22Q63,34,55.5,46Z" fill="#65B891"/></g><g transform="translate(625.152 794.112)"><path d="M27.5,23.5Q24,30,17,29.5Q10,29,6,23Q2,17,6,11Q10,5,17.5,4Q25,3,28,10Q31,17,27.5,23.5Z" fill="#000000" opacity="0.3"/></g><g transform="translate(608.2560000000001 844.8000000000001)"><path d="M57,46.5Q48,59,35,57Q22,55,16,44.5Q10,34,15,22.5Q20,11,35,8.5Q50,6,58,20Q66,34,57,46.5Z" fill="#4E878C"/></g><g transform="translate(625.152 861.696)"><path d="M28.5,24Q25,31,17,30.5Q9,30,7,23.5Q5,17,7.5,11Q10,5,17.5,4Q25,3,28.5,10Q32,17,28.5,24Z" fill="#000000" opacity="0.3"/></g><g transform="translate(608.2560000000001 912.384)"><path d="M55,45Q52,56,40,57Q28,58,17,52.5Q6,47,6,33.5Q6,20,17,13.5Q28,7,38.5,11Q49,15,53.5,24.5Q58,34,55,45Z" fill="#93E5AB"/></g><g transform="translate(625.152 929.28)"><path d="M29.5,23Q27,29,20.5,29Q14,29,9,26Q4,23,3.5,16.5Q3,10,8,6Q13,2,19.5,4Q26,6,29,11.5Q32,17,29.5,23Z" fill="#000000" opacity="0.3"/></g><g transform="translate(608.2560000000001 979.968)"><path d="M55,48Q50,62,34,61.5Q18,61,12.5,47.5Q7,34,13,21.5Q19,9,34.5,7.5Q50,6,55,20Q60,34,55,48Z" fill="#B5FFE1"/></g><g transform="translate(625.152 996.8639999999999)"><path d="M28.5,24Q25,31,17,30.5Q9,30,6.5,23.5Q4,17,7,10.5Q10,4,17.5,3.5Q25,3,28.5,10Q32,17,28.5,24Z" fill="#000000" opacity="0.3"/></g><g transform="translate(675.84 0)"><path d="M58.5,48.5Q51,63,34.5,61.5Q18,60,12,47Q6,34,12.5,21.5Q19,9,32.5,11Q46,13,56,23.5Q66,34,58.5,48.5Z" fill="#65B891"/></g><g transform="translate(692.736 16.896)"><path d="M26.5,23.5Q24,30,17,29.5Q10,29,5.5,23Q1,17,5.5,11.5Q10,6,17.5,4.5Q25,3,27,10Q29,17,26.5,23.5Z" fill="#000000" opacity="0.3"/></g><g transform="translate(675.84 67.584)"><path d="M56,48Q50,62,35.5,58.5Q21,55,14,44.5Q7,34,13.5,21.5Q20,9,34.5,8Q49,7,55.5,20.5Q62,34,56,48Z" fill="#4E878C"/></g><g transform="translate(692.736 84.48)"><path d="M27,22.5Q23,28,16.5,28.5Q10,29,7,23Q4,17,6.5,10Q9,3,17,3Q25,3,28,10Q31,17,27,22.5Z" fill="#000000" opacity="0.3"/></g><g transform="translate(675.84 135.168)"><path d="M56,47.5Q50,61,34.5,60.5Q19,60,14,47Q9,34,15,22.5Q21,11,33.5,12Q46,13,54,23.5Q62,34,56,47.5Z" fill="#65B891"/></g><g transform="translate(692.736 152.06400000000002)"><path d="M27.5,23Q24,29,17.5,28.5Q11,28,6,22.5Q1,17,6,11.5Q11,6,17.5,5Q24,4,27.5,10.5Q31,17,27.5,23Z" fill="#000000" opacity="0.3"/></g><g transform="translate(675.84 202.752)"><path d="M59.5,45.5Q57,57,45.5,58Q34,59,24,56.5Q14,54,7,44Q0,34,5.5,22.5Q11,11,22.5,8Q34,5,45,8.5Q56,12,59,23Q62,34,59.5,45.5Z" fill="#93E5AB"/></g><g transform="translate(692.736 219.64800000000002)"><path d="M30,21.5Q26,26,21.5,29Q17,32,12,29.5Q7,27,3.5,22Q0,17,2.5,11Q5,5,11,4.5Q17,4,22.5,5Q28,6,31,11.5Q34,17,30,21.5Z" fill="#000000" opacity="0.3"/></g><g transform="translate(675.84 270.336)"><path d="M54,47Q49,60,34.5,58.5Q20,57,11,45.5Q2,34,11.5,22.5Q21,11,33.5,12Q46,13,52.5,23.5Q59,34,54,47Z" fill="#4E878C"/></g><g transform="translate(692.736 287.232)"><path d="M27,22.5Q23,28,16,29Q9,30,6,23.5Q3,17,6.5,10.5Q10,4,17,4Q24,4,27.5,10.5Q31,17,27,22.5Z" fill="#000000" opacity="0.3"/></g><g transform="translate(675.84 337.92)"><path d="M56.5,45Q47,56,34,55.5Q21,55,14,44.5Q7,34,13,21Q19,8,34,7.5Q49,7,57.5,20.5Q66,34,56.5,45Z" fill="#93E5AB"/></g><g transform="translate(692.736 354.81600000000003)"><path d="M27,22.5Q23,28,17,28Q11,28,7,22.5Q3,17,6,10.5Q9,4,16.5,4Q24,4,27.5,10.5Q31,17,27,22.5Z" fill="#000000" opacity="0.3"/></g><g transform="translate(675.84 405.504)"><path d="M56,42Q53,50,45.5,54.5Q38,59,27.5,61Q17,63,12.5,53Q8,43,9.5,34.5Q11,26,16.5,19.5Q22,13,30.5,9Q39,5,45.5,12Q52,19,55.5,26.5Q59,34,56,42Z" fill="#65B891"/></g><g transform="translate(692.736 422.40000000000003)"><path d="M29.5,22Q29,27,24.5,30Q20,33,14.5,31.5Q9,30,5.5,26Q2,22,2,16.5Q2,11,5.5,6.5Q9,2,14.5,2Q20,2,24.5,4.5Q29,7,29.5,12Q30,17,29.5,22Z" fill="#000000" opacity="0.3"/></g><g transform="translate(675.84 473.088)"><path d="M56,45Q47,56,32,59Q17,62,9.5,48Q2,34,9.5,19.5Q17,5,33.5,5Q50,5,57.5,19.5Q65,34,56,45Z" fill="#93E5AB"/></g><g transform="translate(692.736 489.98400000000004)"><path d="M27,22.5Q23,28,16.5,28Q10,28,5.5,22.5Q1,17,5.5,11Q10,5,17.5,4Q25,3,28,10Q31,17,27,22.5Z" fill="#000000" opacity="0.3"/></g><g transform="translate(675.84 540.672)"><path d="M54.5,46.5Q48,59,33.5,59Q19,59,14,46.5Q9,34,14.5,21.5Q20,9,33,11Q46,13,53.5,23.5Q61,34,54.5,46.5Z" fill="#B5FFE1"/></g><g transform="translate(692.736 557.568)"><path d="M28.5,23Q24,29,17,29Q10,29,7.5,23Q5,17,7.5,11Q10,5,17.5,4Q25,3,29,10Q33,17,28.5,23Z" fill="#000000" opacity="0.3"/></g><g transform="translate(675.84 608.2560000000001)"><path d="M53.5,46Q48,58,33,60Q18,62,12.5,48Q7,34,13,21Q19,8,34.5,7Q50,6,54.5,20Q59,34,53.5,46Z" fill="#65B891"/></g><g transform="translate(692.736 625.152)"><path d="M29,24Q25,31,17,30.5Q9,30,6,23.5Q3,17,6,10Q9,3,16.5,4Q24,5,28.5,11Q33,17,29,24Z" fill="#000000" opacity="0.3"/></g><g transform="translate(675.84 675.84)"><path d="M53,46.5Q48,59,32.5,61Q17,63,10.5,48.5Q4,34,11,20Q18,6,32,9.5Q46,13,52,23.5Q58,34,53,46.5Z" fill="#65B891"/></g><g transform="translate(692.736 692.736)"><path d="M28.5,23Q24,29,16.5,29.5Q9,30,6,23.5Q3,17,7,11.5Q11,6,17.5,5.5Q24,5,28.5,11Q33,17,28.5,23Z" fill="#000000" opacity="0.3"/></g><g transform="translate(675.84 743.424)"><path d="M55,44.5Q46,55,33,56Q20,57,12.5,45.5Q5,34,12.5,21.5Q20,9,34,9Q48,9,56,21.5Q64,34,55,44.5Z" fill="#B5FFE1"/></g><g transform="translate(692.736 760.3199999999999)"><path d="M27,23.5Q24,30,16.5,30Q9,30,6,23.5Q3,17,6.5,11.5Q10,6,17,5Q24,4,27,10.5Q30,17,27,23.5Z" fill="#000000" opacity="0.3"/></g><g transform="translate(675.84 811.008)"><path d="M54,45Q47,56,34,55.5Q21,55,14.5,44.5Q8,34,13.5,21Q19,8,33.5,8.5Q48,9,54.5,21.5Q61,34,54,45Z" fill="#65B891"/></g><g transform="translate(692.736 827.904)"><path d="M27,23Q24,29,16.5,30Q9,31,5.5,24Q2,17,5.5,10.5Q9,4,16.5,4Q24,4,27,10.5Q30,17,27,23Z" fill="#000000" opacity="0.3"/></g><g transform="translate(675.84 878.5920000000001)"><path d="M55.5,46.5Q48,59,33.5,59.5Q19,60,10.5,47Q2,34,9.5,19.5Q17,5,32,8Q47,11,55,22.5Q63,34,55.5,46.5Z" fill="#93E5AB"/></g><g transform="translate(692.736 895.488)"><path d="M28.5,23.5Q25,30,17.5,29.5Q10,29,6,23Q2,17,6,11Q10,5,17,5Q24,5,28,11Q32,17,28.5,23.5Z" fill="#000000" opacity="0.3"/></g><g transform="translate(675.84 946.176)"><path d="M57,46.5Q49,59,33.5,60Q18,61,9.5,47.5Q1,34,10,21Q19,8,33.5,8.5Q48,9,56.5,21.5Q65,34,57,46.5Z" fill="#4E878C"/></g><g transform="translate(692.736 963.072)"><path d="M28,24Q25,31,17.5,30Q10,29,6.5,23Q3,17,6.5,10.5Q10,4,17.5,3.5Q25,3,28,10Q31,17,28,24Z" fill="#000000" opacity="0.3"/></g><g transform="translate(675.84 1013.76)"><path d="M55,48Q50,62,35.5,59Q21,56,11.5,45Q2,34,10,20.5Q18,7,33,8Q48,9,54,21.5Q60,34,55,48Z" fill="#93E5AB"/></g><g transform="translate(692.736 1030.656)"><path d="M28.5,23Q24,29,17,29Q10,29,6,23Q2,17,5.5,10.5Q9,4,16,5Q23,6,28,11.5Q33,17,28.5,23Z" fill="#000000" opacity="0.3"/></g><g transform="translate(743.424 -33.792)"><path d="M60,46.5Q54,59,40.5,61Q27,63,16,55.5Q5,48,7.5,35Q10,22,19,14.5Q28,7,39.5,10Q51,13,58.5,23.5Q66,34,60,46.5Z" fill="#4E878C"/></g><g transform="translate(760.3199999999999 -16.896)"><path d="M30,23.5Q27,30,20.5,30.5Q14,31,9,27Q4,23,3,16.5Q2,10,7.5,5.5Q13,1,19.5,3Q26,5,29.5,11Q33,17,30,23.5Z" fill="#000000" opacity="0.3"/></g><g transform="translate(743.424 33.792)"><path d="M57.5,46.5Q48,59,34,59Q20,59,12.5,46.5Q5,34,13,22.5Q21,11,35,9.5Q49,8,58,21Q67,34,57.5,46.5Z" fill="#B5FFE1"/></g><g transform="translate(760.3199999999999 50.688)"><path d="M28,23.5Q24,30,16.5,30Q9,30,5.5,23.5Q2,17,6,11Q10,5,16.5,5.5Q23,6,27.5,11.5Q32,17,28,23.5Z" fill="#000000" opacity="0.3"/></g><g transform="translate(743.424 101.376)"><path d="M58,47.5Q49,61,34.5,59Q20,57,13.5,45.5Q7,34,14,23Q21,12,34.5,10Q48,8,57.5,21Q67,34,58,47.5Z" fill="#4E878C"/></g><g transform="translate(760.3199999999999 118.272)"><path d="M29,23.5Q24,30,17.5,28.5Q11,27,7,22Q3,17,6,9.5Q9,2,16.5,3Q24,4,29,10.5Q34,17,29,23.5Z" fill="#000000" opacity="0.3"/></g><g transform="translate(743.424 168.96)"><path d="M56,47Q49,60,34,60Q19,60,11.5,47Q4,34,11,20.5Q18,7,33,8Q48,9,55.5,21.5Q63,34,56,47Z" fill="#65B891"/></g><g transform="translate(760.3199999999999 185.856)"><path d="M28.5,24Q25,31,17.5,30Q10,29,7.5,23Q5,17,7.5,11Q10,5,17.5,4.5Q25,4,28.5,10.5Q32,17,28.5,24Z" fill="#000000" opacity="0.3"/></g><g transform="translate(743.424 236.544)"><path d="M58,48Q50,62,33.5,62Q17,62,9.5,48Q2,34,10,20Q18,6,33.5,6.5Q49,7,57.5,20.5Q66,34,58,48Z" fill="#4E878C"/></g><g transform="translate(760.3199999999999 253.44)"><path d="M28,24Q25,31,17,30.5Q9,30,5.5,23.5Q2,17,5.5,10Q9,3,16.5,4Q24,5,27.5,11Q31,17,28,24Z" fill="#000000" opacity="0.3"/></g><g transform="translate(743.424 304.12800000000004)"><path d="M58.5,46.5Q54,59,40,62.5Q26,66,18.5,55.5Q11,45,8.5,32.5Q6,20,16.5,13Q27,6,39,9Q51,12,57,23Q63,34,58.5,46.5Z" fill="#B5FFE1"/></g><g transform="translate(760.3199999999999 321.02400000000006)"><path d="M28.5,22.5Q26,28,19.5,30Q13,32,8.5,27.5Q4,23,3,16.5Q2,10,8,7.5Q14,5,19.5,5.5Q25,6,28,11.5Q31,17,28.5,22.5Z" fill="#000000" opacity="0.3"/></g><g transform="translate(743.424 371.712)"><path d="M55.5,44Q46,54,33.5,55Q21,56,12,45Q3,34,10,19.5Q17,5,31.5,8.5Q46,12,55.5,23Q65,34,55.5,44Z" fill="#4E878C"/></g><g transform="translate(760.3199999999999 388.608)"><path d="M28.5,23.5Q24,30,17.5,28.5Q11,27,7,22Q3,17,6,10Q9,3,16,4.5Q23,6,28,11.5Q33,17,28.5,23.5Z" fill="#000000" opacity="0.3"/></g><g transform="translate(743.424 439.29600000000005)"><path d="M54,45Q47,56,32,59.5Q17,63,9.5,48.5Q2,34,10,20.5Q18,7,33,8.5Q48,10,54.5,22Q61,34,54,45Z" fill="#93E5AB"/></g><g transform="translate(760.3199999999999 456.19200000000006)"><path d="M27.5,24Q25,31,17,30.5Q9,30,6.5,23.5Q4,17,7.5,12Q11,7,18,4.5Q25,2,27.5,9.5Q30,17,27.5,24Z" fill="#000000" opacity="0.3"/></g><g transform="translate(743.424 506.88)"><path d="M57.5,46Q48,58,34,58Q20,58,11.5,46Q3,34,11,21Q19,8,33.5,9Q48,10,57.5,22Q67,34,57.5,46Z" fill="#4E878C"/></g><g transform="translate(760.3199999999999 523.776)"><path d="M28.5,24Q25,31,17,31Q9,31,5.5,24Q2,17,6,11Q10,5,17.5,4Q25,3,28.5,10Q32,17,28.5,24Z" fill="#000000" opacity="0.3"/></g><g transform="translate(743.424 574.464)"><path d="M55.5,46Q48,58,33.5,59Q19,60,12,47Q5,34,11.5,20Q18,6,34.5,5.5Q51,5,57,19.5Q63,34,55.5,46Z" fill="#65B891"/></g><g transform="translate(760.3199999999999 591.36)"><path d="M27.5,23.5Q24,30,16.5,30Q9,30,5.5,23.5Q2,17,5.5,10Q9,3,17,3Q25,3,28,10Q31,17,27.5,23.5Z" fill="#000000" opacity="0.3"/></g><g transform="translate(743.424 642.048)"><path d="M55,48Q50,62,35,59.5Q20,57,10,45.5Q0,34,10,22Q20,10,35,8Q50,6,55,20Q60,34,55,48Z" fill="#B5FFE1"/></g><g transform="translate(760.3199999999999 658.944)"><path d="M28.5,23Q24,29,17.5,28.5Q11,28,7,22.5Q3,17,6,10.5Q9,4,17,3.5Q25,3,29,10Q33,17,28.5,23Z" fill="#000000" opacity="0.3"/></g><g transform="translate(743.424 709.632)"><path d="M55.5,45.5Q47,57,32,60Q17,63,11.5,48.5Q6,34,14,23.5Q22,13,34.5,12.5Q47,12,55.5,23Q64,34,55.5,45.5Z" fill="#93E5AB"/></g><g transform="translate(760.3199999999999 726.5279999999999)"><path d="M28.5,23.5Q24,30,17.5,29Q11,28,6.5,22.5Q2,17,5.5,10.5Q9,4,17,4Q25,4,29,10.5Q33,17,28.5,23.5Z" fill="#000000" opacity="0.3"/></g><g transform="translate(743.424 777.216)"><path d="M57,47Q49,60,34,59.5Q19,59,10.5,46.5Q2,34,10.5,21Q19,8,33.5,8.5Q48,9,56.5,21.5Q65,34,57,47Z" fill="#4E878C"/></g><g transform="translate(760.3199999999999 794.112)"><path d="M29,24Q25,31,17,31Q9,31,4.5,24Q0,17,4.5,10Q9,3,17,3Q25,3,29,10Q33,17,29,24Z" fill="#000000" opacity="0.3"/></g><g transform="translate(743.424 844.8000000000001)"><path d="M57.5,47.5Q50,61,34,61Q18,61,9,47.5Q0,34,9,20.5Q18,7,34,6Q50,5,57.5,19.5Q65,34,57.5,47.5Z" fill="#4E878C"/></g><g transform="translate(760.3199999999999 861.696)"><path d="M29,24Q25,31,17,31Q9,31,5,24Q1,17,5,10Q9,3,17,2.5Q25,2,29,9.5Q33,17,29,24Z" fill="#000000" opacity="0.3"/></g><g transform="translate(743.424 912.384)"><path d="M54.5,47Q49,60,33.5,60.5Q18,61,13.5,47.5Q9,34,15,22.5Q21,11,33.5,11.5Q46,12,53,23Q60,34,54.5,47Z" fill="#4E878C"/></g><g transform="translate(760.3199999999999 929.28)"><path d="M27,23Q24,29,17,29.5Q10,30,6.5,23.5Q3,17,6.5,11Q10,5,17,4.5Q24,4,27,10.5Q30,17,27,23Z" fill="#000000" opacity="0.3"/></g><g transform="translate(743.424 979.968)"><path d="M56,44.5Q46,55,33,56.5Q20,58,11.5,46Q3,34,10,19.5Q17,5,31.5,8.5Q46,12,56,23Q66,34,56,44.5Z" fill="#B5FFE1"/></g><g transform="translate(760.3199999999999 996.8639999999999)"><path d="M28.5,23Q24,29,16.5,29.5Q9,30,5.5,23.5Q2,17,6,11Q10,5,17.5,4Q25,3,29,10Q33,17,28.5,23Z" fill="#000000" opacity="0.3"/></g><g transform="translate(811.008 0)"><path d="M57,46.5Q49,59,35.5,56.5Q22,54,11.5,44Q1,34,9.5,20.5Q18,7,33.5,7Q49,7,57,20.5Q65,34,57,46.5Z" fill="#65B891"/></g><g transform="translate(827.904 16.896)"><path d="M27.5,24Q25,31,17.5,29.5Q10,28,7,22.5Q4,17,7,10.5Q10,4,17,4.5Q24,5,27,11Q30,17,27.5,24Z" fill="#000000" opacity="0.3"/></g><g transform="translate(811.008 67.584)"><path d="M60.5,44.5Q59,55,48.5,56.5Q38,58,29,58Q20,58,12.5,51Q5,44,6,34Q7,24,14,17.5Q21,11,30,9Q39,7,48.5,10Q58,13,60,23.5Q62,34,60.5,44.5Z" fill="#4E878C"/></g><g transform="translate(827.904 84.48)"><path d="M28,21.5Q27,26,23.5,29.5Q20,33,14.5,31.5Q9,30,5.5,26Q2,22,3.5,17.5Q5,13,8,9.5Q11,6,15,4.5Q19,3,22.5,6Q26,9,27.5,13Q29,17,28,21.5Z" fill="#000000" opacity="0.3"/></g><g transform="translate(811.008 135.168)"><path d="M56.5,45.5Q47,57,33,58.5Q19,60,11.5,47Q4,34,11,20Q18,6,32,9Q46,12,56,23Q66,34,56.5,45.5Z" fill="#4E878C"/></g><g transform="translate(827.904 152.06400000000002)"><path d="M29,23Q24,29,16.5,29.5Q9,30,5,23.5Q1,17,5.5,10.5Q10,4,17.5,4Q25,4,29.5,10.5Q34,17,29,23Z" fill="#000000" opacity="0.3"/></g><g transform="translate(811.008 202.752)"><path d="M59,44Q58,54,48.5,58.5Q39,63,28.5,62Q18,61,11.5,52.5Q5,44,4.5,33.5Q4,23,10.5,14Q17,5,27.5,6.5Q38,8,48,10.5Q58,13,59,23.5Q60,34,59,44Z" fill="#4E878C"/></g><g transform="translate(827.904 219.64800000000002)"><path d="M28,21.5Q27,26,23,27.5Q19,29,14.5,28.5Q10,28,5.5,25.5Q1,23,3.5,18Q6,13,8,9Q10,5,14.5,3.5Q19,2,23.5,5Q28,8,28.5,12.5Q29,17,28,21.5Z" fill="#000000" opacity="0.3"/></g><g transform="translate(811.008 270.336)"><path d="M60,44Q57,54,48,58.5Q39,63,29,61Q19,59,11.5,51.5Q4,44,5.5,34Q7,24,13,16Q19,8,29,5Q39,2,45.5,10Q52,18,57.5,26Q63,34,60,44Z" fill="#B5FFE1"/></g><g transform="translate(827.904 287.232)"><path d="M30,21.5Q28,26,23.5,29Q19,32,14,31.5Q9,31,5.5,26.5Q2,22,3,17Q4,12,7.5,9Q11,6,15.5,3.5Q20,1,24,4.5Q28,8,30,12.5Q32,17,30,21.5Z" fill="#000000" opacity="0.3"/></g><g transform="translate(811.008 337.92)"><path d="M55,44Q46,54,32.5,56.5Q19,59,13.5,46.5Q8,34,14.5,22.5Q21,11,35.5,8Q50,5,57,19.5Q64,34,55,44Z" fill="#4E878C"/></g><g transform="translate(827.904 354.81600000000003)"><path d="M28.5,22.5Q23,28,16,29Q9,30,6,23.5Q3,17,5.5,9.5Q8,2,16.5,2.5Q25,3,29.5,10Q34,17,28.5,22.5Z" fill="#000000" opacity="0.3"/></g><g transform="translate(811.008 405.504)"><path d="M55,44.5Q46,55,33.5,55.5Q21,56,13,45Q5,34,12.5,22Q20,10,33.5,10.5Q47,11,55.5,22.5Q64,34,55,44.5Z" fill="#B5FFE1"/></g><g transform="translate(827.904 422.40000000000003)"><path d="M27,24Q25,31,17,30.5Q9,30,7,23.5Q5,17,7,10Q9,3,16.5,4Q24,5,26.5,11Q29,17,27,24Z" fill="#000000" opacity="0.3"/></g><g transform="translate(811.008 473.088)"><path d="M61.5,45.5Q57,57,45.5,61Q34,65,22.5,61Q11,57,8.5,45.5Q6,34,9,23Q12,12,23,10.5Q34,9,43,12Q52,15,59,24.5Q66,34,61.5,45.5Z" fill="#65B891"/></g><g transform="translate(827.904 489.98400000000004)"><path d="M29.5,22.5Q28,28,22.5,29.5Q17,31,12,29Q7,27,4,22Q1,17,4,12Q7,7,12,6Q17,5,23,5Q29,5,30,11Q31,17,29.5,22.5Z" fill="#000000" opacity="0.3"/></g><g transform="translate(811.008 540.672)"><path d="M55,44.5Q46,55,32.5,57Q19,59,13.5,46.5Q8,34,13.5,21Q19,8,34,7.5Q49,7,56.5,20.5Q64,34,55,44.5Z" fill="#4E878C"/></g><g transform="translate(827.904 557.568)"><path d="M27,23.5Q25,30,17,30.5Q9,31,6,24Q3,17,7,11.5Q11,6,18,4.5Q25,3,27,10Q29,17,27,23.5Z" fill="#000000" opacity="0.3"/></g><g transform="translate(811.008 608.2560000000001)"><path d="M53.5,47.5Q49,61,35,58.5Q21,56,15,45Q9,34,13.5,20Q18,6,33.5,7Q49,8,53.5,21Q58,34,53.5,47.5Z" fill="#93E5AB"/></g><g transform="translate(827.904 625.152)"><path d="M29,23.5Q24,30,16.5,30.5Q9,31,6.5,24Q4,17,6.5,10Q9,3,17,3Q25,3,29.5,10Q34,17,29,23.5Z" fill="#000000" opacity="0.3"/></g><g transform="translate(811.008 675.84)"><path d="M57,47Q49,60,34.5,59Q20,58,13,46Q6,34,13.5,23Q21,12,34,11.5Q47,11,56,22.5Q65,34,57,47Z" fill="#93E5AB"/></g><g transform="translate(827.904 692.736)"><path d="M27,23Q24,29,17.5,28.5Q11,28,6.5,22.5Q2,17,6,10.5Q10,4,17,4Q24,4,27,10.5Q30,17,27,23Z" fill="#000000" opacity="0.3"/></g><g transform="translate(811.008 743.424)"><path d="M58.5,48Q50,62,36,58.5Q22,55,14,44.5Q6,34,13,22Q20,10,33,11Q46,12,56.5,23Q67,34,58.5,48Z" fill="#B5FFE1"/></g><g transform="translate(827.904 760.3199999999999)"><path d="M26.5,22.5Q23,28,17,28Q11,28,6.5,22.5Q2,17,6,11Q10,5,17.5,4.5Q25,4,27.5,10.5Q30,17,26.5,22.5Z" fill="#000000" opacity="0.3"/></g><g transform="translate(811.008 811.008)"><path d="M56,44Q54,54,44,58.5Q34,63,22.5,59.5Q11,56,7,45Q3,34,9,24.5Q15,15,24.5,11.5Q34,8,45.5,9Q57,10,57.5,22Q58,34,56,44Z" fill="#93E5AB"/></g><g transform="translate(827.904 827.904)"><path d="M30,21.5Q26,26,21.5,29Q17,32,12,29Q7,26,5,21.5Q3,17,5,12Q7,7,12,5.5Q17,4,22.5,4.5Q28,5,31,11Q34,17,30,21.5Z" fill="#000000" opacity="0.3"/></g><g transform="translate(811.008 878.5920000000001)"><path d="M57.5,47.5Q49,61,33.5,61Q18,61,10.5,47.5Q3,34,12.5,23.5Q22,13,34.5,12Q47,11,56.5,22.5Q66,34,57.5,47.5Z" fill="#4E878C"/></g><g transform="translate(827.904 895.488)"><path d="M28.5,24Q25,31,17.5,29.5Q10,28,5,22.5Q0,17,5.5,11.5Q11,6,18,4.5Q25,3,28.5,10Q32,17,28.5,24Z" fill="#000000" opacity="0.3"/></g><g transform="translate(811.008 946.176)"><path d="M61.5,44.5Q59,55,49,60.5Q39,66,30,61Q21,56,16,49Q11,42,9.5,33Q8,24,14,16.5Q20,9,29.5,6Q39,3,49,8Q59,13,61.5,23.5Q64,34,61.5,44.5Z" fill="#B5FFE1"/></g><g transform="translate(827.904 963.072)"><path d="M30.5,22Q29,27,24,29Q19,31,14,31Q9,31,5.5,26.5Q2,22,2,17Q2,12,6,8.5Q10,5,15,3.5Q20,2,23.5,5.5Q27,9,29.5,13Q32,17,30.5,22Z" fill="#000000" opacity="0.3"/></g><g transform="translate(811.008 1013.76)"><path d="M55,42.5Q51,51,42.5,56.5Q34,62,23.5,58Q13,54,11.5,44Q10,34,13,25Q16,16,25,8.5Q34,1,44,7Q54,13,56.5,23.5Q59,34,55,42.5Z" fill="#4E878C"/></g><g transform="translate(827.904 1030.656)"><path d="M29.5,22.5Q28,28,22.5,30.5Q17,33,11.5,30Q6,27,5,22Q4,17,4.5,11Q5,5,11,3.5Q17,2,22,4Q27,6,29,11.5Q31,17,29.5,22.5Z" fill="#000000" opacity="0.3"/></g><g transform="translate(878.5920000000001 -33.792)"><path d="M55.5,44.5Q46,55,32,58Q18,61,13.5,47.5Q9,34,14,21Q19,8,33,9.5Q47,11,56,22.5Q65,34,55.5,44.5Z" fill="#4E878C"/></g><g transform="translate(895.488 -16.896)"><path d="M28.5,23Q24,29,17.5,28.5Q11,28,8,22.5Q5,17,7.5,10.5Q10,4,17,4.5Q24,5,28.5,11Q33,17,28.5,23Z" fill="#000000" opacity="0.3"/></g><g transform="translate(878.5920000000001 33.792)"><path d="M54,45Q47,56,33.5,57Q20,58,11.5,46Q3,34,11,21Q19,8,32.5,10Q46,12,53.5,23Q61,34,54,45Z" fill="#93E5AB"/></g><g transform="translate(895.488 50.688)"><path d="M27,23Q24,29,17,28.5Q10,28,6.5,22.5Q3,17,7,11.5Q11,6,17.5,5Q24,4,27,10.5Q30,17,27,23Z" fill="#000000" opacity="0.3"/></g><g transform="translate(878.5920000000001 101.376)"><path d="M58.5,47.5Q50,61,35,59.5Q20,58,14.5,46Q9,34,15,23Q21,12,36,8.5Q51,5,59,19.5Q67,34,58.5,47.5Z" fill="#65B891"/></g><g transform="translate(895.488 118.272)"><path d="M27,24.5Q25,32,17.5,30Q10,28,6.5,22.5Q3,17,6,10Q9,3,17,3Q25,3,27,10Q29,17,27,24.5Z" fill="#000000" opacity="0.3"/></g><g transform="translate(878.5920000000001 168.96)"><path d="M58.5,48Q50,62,34,62Q18,62,10,48Q2,34,9.5,19.5Q17,5,33.5,5.5Q50,6,58.5,20Q67,34,58.5,48Z" fill="#93E5AB"/></g><g transform="translate(895.488 185.856)"><path d="M29.5,24Q25,31,17,31Q9,31,5.5,24Q2,17,5.5,10Q9,3,17,3Q25,3,29.5,10Q34,17,29.5,24Z" fill="#000000" opacity="0.3"/></g><g transform="translate(878.5920000000001 236.544)"><path d="M53.5,46.5Q49,59,34.5,58Q20,57,14,45.5Q8,34,15,23.5Q22,13,34.5,12Q47,11,52.5,22.5Q58,34,53.5,46.5Z" fill="#93E5AB"/></g><g transform="translate(895.488 253.44)"><path d="M28.5,22.5Q23,28,16,29Q9,30,6,23.5Q3,17,7,11.5Q11,6,17,6Q23,6,28.5,11.5Q34,17,28.5,22.5Z" fill="#000000" opacity="0.3"/></g><g transform="translate(878.5920000000001 304.12800000000004)"><path d="M56,46Q48,58,33.5,58.5Q19,59,12,46.5Q5,34,12,21Q19,8,33,9.5Q47,11,55.5,22.5Q64,34,56,46Z" fill="#65B891"/></g><g transform="translate(895.488 321.02400000000006)"><path d="M26.5,23Q24,29,16.5,30Q9,31,6,24Q3,17,6,10.5Q9,4,17,3.5Q25,3,27,10Q29,17,26.5,23Z" fill="#000000" opacity="0.3"/></g><g transform="translate(878.5920000000001 371.712)"><path d="M56,46Q53,58,40.5,58Q28,58,19,51.5Q10,45,9,33.5Q8,22,17.5,12Q27,2,40.5,5.5Q54,9,56.5,21.5Q59,34,56,46Z" fill="#4E878C"/></g><g transform="translate(895.488 388.608)"><path d="M28.5,23.5Q27,30,20.5,30Q14,30,9.5,26.5Q5,23,3.5,16.5Q2,10,8,6.5Q14,3,20.5,4Q27,5,28.5,11Q30,17,28.5,23.5Z" fill="#000000" opacity="0.3"/></g><g transform="translate(878.5920000000001 439.29600000000005)"><path d="M56,44.5Q51,55,39,60.5Q27,66,17,56.5Q7,47,9.5,35Q12,23,19.5,14.5Q27,6,40,7.5Q53,9,57,21.5Q61,34,56,44.5Z" fill="#4E878C"/></g><g transform="translate(895.488 456.19200000000006)"><path d="M30,23Q26,29,19.5,31Q13,33,8.5,28Q4,23,4,17Q4,11,9,8Q14,5,19,6.5Q24,8,29,12.5Q34,17,30,23Z" fill="#000000" opacity="0.3"/></g><g transform="translate(878.5920000000001 506.88)"><path d="M53.5,47.5Q49,61,35,58.5Q21,56,15,45Q9,34,15.5,23.5Q22,13,36.5,9Q51,5,54.5,19.5Q58,34,53.5,47.5Z" fill="#B5FFE1"/></g><g transform="translate(895.488 523.776)"><path d="M28.5,24Q25,31,17,30.5Q9,30,7,23.5Q5,17,7.5,11Q10,5,17.5,4Q25,3,28.5,10Q32,17,28.5,24Z" fill="#000000" opacity="0.3"/></g><g transform="translate(878.5920000000001 574.464)"><path d="M56,43.5Q49,53,38.5,55Q28,57,16,52.5Q4,48,6,34.5Q8,21,17,11Q26,1,39,6Q52,11,57.5,22.5Q63,34,56,43.5Z" fill="#4E878C"/></g><g transform="translate(895.488 591.36)"><path d="M28,22Q25,27,19.5,28Q14,29,9,26Q4,23,4,17Q4,11,9,7Q14,3,20.5,3.5Q27,4,29,10.5Q31,17,28,22Z" fill="#000000" opacity="0.3"/></g><g transform="translate(878.5920000000001 642.048)"><path d="M53,45Q47,56,32.5,58.5Q18,61,10.5,47.5Q3,34,10.5,20Q18,6,32.5,8.5Q47,11,53,22.5Q59,34,53,45Z" fill="#93E5AB"/></g><g transform="translate(895.488 658.944)"><path d="M27,23Q24,29,16.5,30Q9,31,7,24Q5,17,7,10.5Q9,4,16.5,4.5Q24,5,27,11Q30,17,27,23Z" fill="#000000" opacity="0.3"/></g><g transform="translate(878.5920000000001 709.632)"><path d="M55.5,46Q48,58,34,57.5Q20,57,13.5,45.5Q7,34,14,23Q21,12,34,11.5Q47,11,55,22.5Q63,34,55.5,46Z" fill="#4E878C"/></g><g transform="translate(895.488 726.5279999999999)"><path d="M29,24Q25,31,18,29Q11,27,7,22Q3,17,6.5,10.5Q10,4,16.5,5Q23,6,28,11.5Q33,17,29,24Z" fill="#000000" opacity="0.3"/></g><g transform="translate(878.5920000000001 777.216)"><path d="M55.5,48.5Q51,63,36,59Q21,55,11,44.5Q1,34,10,21Q19,8,34.5,7Q50,6,55,20Q60,34,55.5,48.5Z" fill="#4E878C"/></g><g transform="translate(895.488 794.112)"><path d="M27,22Q23,27,16,28.5Q9,30,6,23.5Q3,17,6.5,11Q10,5,16.5,5.5Q23,6,27,11.5Q31,17,27,22Z" fill="#000000" opacity="0.3"/></g><g transform="translate(878.5920000000001 844.8000000000001)"><path d="M54,46Q48,58,33.5,58.5Q19,59,14.5,46.5Q10,34,13.5,19.5Q17,5,32,8Q47,11,53.5,22.5Q60,34,54,46Z" fill="#4E878C"/></g><g transform="translate(895.488 861.696)"><path d="M26.5,22.5Q24,28,17.5,28Q11,28,7,22.5Q3,17,7,11.5Q11,6,18,4.5Q25,3,27,10Q29,17,26.5,22.5Z" fill="#000000" opacity="0.3"/></g><g transform="translate(878.5920000000001 912.384)"><path d="M54,45.5Q47,57,32.5,59Q18,61,11,47.5Q4,34,11,20.5Q18,7,32,10Q46,13,53.5,23.5Q61,34,54,45.5Z" fill="#65B891"/></g><g transform="translate(895.488 929.28)"><path d="M28.5,22.5Q23,28,16,29.5Q9,31,5,24Q1,17,5.5,11Q10,5,17.5,4Q25,3,29.5,10Q34,17,28.5,22.5Z" fill="#000000" opacity="0.3"/></g><g transform="translate(878.5920000000001 979.968)"><path d="M57,47Q49,60,33.5,60Q18,60,10.5,47Q3,34,10.5,20Q18,6,34,5.5Q50,5,57.5,19.5Q65,34,57,47Z" fill="#65B891"/></g><g transform="translate(895.488 996.8639999999999)"><path d="M29,23.5Q25,30,17,30.5Q9,31,5,24Q1,17,5,10Q9,3,17,3Q25,3,29,10Q33,17,29,23.5Z" fill="#000000" opacity="0.3"/></g><g transform="translate(946.176 0)"><path d="M55,44.5Q46,55,33,56.5Q20,58,13,46Q6,34,13.5,23Q21,12,33.5,12Q46,12,55,23Q64,34,55,44.5Z" fill="#B5FFE1"/></g><g transform="translate(963.072 16.896)"><path d="M28,22.5Q23,28,16,29.5Q9,31,4.5,24Q0,17,5,11Q10,5,17,4.5Q24,4,28.5,10.5Q33,17,28,22.5Z" fill="#000000" opacity="0.3"/></g><g transform="translate(946.176 67.584)"><path d="M59,48Q50,62,34,61.5Q18,61,10.5,47.5Q3,34,10,19.5Q17,5,34,5Q51,5,59.5,19.5Q68,34,59,48Z" fill="#65B891"/></g><g transform="translate(963.072 84.48)"><path d="M29,24Q25,31,17,31Q9,31,5,24Q1,17,5,10Q9,3,17,2.5Q25,2,29,9.5Q33,17,29,24Z" fill="#000000" opacity="0.3"/></g><g transform="translate(946.176 135.168)"><path d="M56,46Q48,58,32.5,60.5Q17,63,9.5,48.5Q2,34,10.5,21Q19,8,35,6.5Q51,5,57.5,19.5Q64,34,56,46Z" fill="#65B891"/></g><g transform="translate(963.072 152.06400000000002)"><path d="M28,23Q24,29,17,29.5Q10,30,6,23.5Q2,17,5.5,10.5Q9,4,16.5,4Q24,4,28,10.5Q32,17,28,23Z" fill="#000000" opacity="0.3"/></g><g transform="translate(946.176 202.752)"><path d="M62,45.5Q57,57,45.5,57.5Q34,58,24,56Q14,54,10,44Q6,34,11,25Q16,16,25,12.5Q34,9,42.5,13Q51,17,59,25.5Q67,34,62,45.5Z" fill="#4E878C"/></g><g transform="translate(963.072 219.64800000000002)"><path d="M29.5,22.5Q28,28,22.5,30Q17,32,12.5,28.5Q8,25,5,21Q2,17,4,11.5Q6,6,11.5,3Q17,0,21.5,4Q26,8,28.5,12.5Q31,17,29.5,22.5Z" fill="#000000" opacity="0.3"/></g><g transform="translate(946.176 270.336)"><path d="M59,44Q54,54,44,56Q34,58,22.5,57.5Q11,57,7.5,45.5Q4,34,9,24Q14,14,24,10.5Q34,7,45.5,9Q57,11,60.5,22.5Q64,34,59,44Z" fill="#65B891"/></g><g transform="translate(963.072 287.232)"><path d="M28.5,22Q27,27,22,28Q17,29,12.5,27.5Q8,26,5.5,21.5Q3,17,4,11Q5,5,11,3Q17,1,22,4Q27,7,28.5,12Q30,17,28.5,22Z" fill="#000000" opacity="0.3"/></g><g transform="translate(946.176 337.92)"><path d="M56.5,44Q54,54,44,60Q34,66,22.5,61.5Q11,57,5.5,45.5Q0,34,6,23Q12,12,23,11Q34,10,43,13Q52,16,55.5,25Q59,34,56.5,44Z" fill="#93E5AB"/></g><g transform="translate(963.072 354.81600000000003)"><path d="M29,23Q29,29,23,29Q17,29,11.5,28.5Q6,28,4,22.5Q2,17,4,11.5Q6,6,11.5,3Q17,0,21,4Q25,8,27,12.5Q29,17,29,23Z" fill="#000000" opacity="0.3"/></g><g transform="translate(946.176 405.504)"><path d="M54.5,44Q50,54,38.5,59Q27,64,16.5,55.5Q6,47,6.5,34Q7,21,17.5,14.5Q28,8,41,8.5Q54,9,56.5,21.5Q59,34,54.5,44Z" fill="#4E878C"/></g><g transform="translate(963.072 422.40000000000003)"><path d="M29,22.5Q26,28,20,29Q14,30,8.5,27Q3,24,3,17Q3,10,8.5,7.5Q14,5,19.5,6Q25,7,28.5,12Q32,17,29,22.5Z" fill="#000000" opacity="0.3"/></g><g transform="translate(946.176 473.088)"><path d="M59,44.5Q59,55,49,60Q39,65,28.5,63.5Q18,62,10.5,53.5Q3,45,5.5,34.5Q8,24,14,17Q20,10,29.5,7.5Q39,5,49,9Q59,13,59,23.5Q59,34,59,44.5Z" fill="#93E5AB"/></g><g transform="translate(963.072 489.98400000000004)"><path d="M29,21Q27,25,23.5,28.5Q20,32,15,30.5Q10,29,6.5,25.5Q3,22,3,17Q3,12,6.5,8Q10,4,14.5,4Q19,4,23,6Q27,8,29,12.5Q31,17,29,21Z" fill="#000000" opacity="0.3"/></g><g transform="translate(946.176 540.672)"><path d="M57.5,47.5Q50,61,35,59Q20,57,12.5,45.5Q5,34,11.5,20Q18,6,33,7.5Q48,9,56.5,21.5Q65,34,57.5,47.5Z" fill="#4E878C"/></g><g transform="translate(963.072 557.568)"><path d="M27.5,23.5Q25,30,17,30Q9,30,6,23.5Q3,17,6,10Q9,3,16,4.5Q23,6,26.5,11.5Q30,17,27.5,23.5Z" fill="#000000" opacity="0.3"/></g><g transform="translate(946.176 608.2560000000001)"><path d="M56,45.5Q47,57,33.5,58Q20,59,12.5,46.5Q5,34,13,22.5Q21,11,34.5,10Q48,9,56.5,21.5Q65,34,56,45.5Z" fill="#65B891"/></g><g transform="translate(963.072 625.152)"><path d="M27,23Q24,29,17,28.5Q10,28,6.5,22.5Q3,17,7,11.5Q11,6,17.5,5Q24,4,27,10.5Q30,17,27,23Z" fill="#000000" opacity="0.3"/></g><g transform="translate(946.176 675.84)"><path d="M56,46.5Q48,59,33.5,59Q19,59,13,46.5Q7,34,13,21Q19,8,34.5,6.5Q50,5,57,19.5Q64,34,56,46.5Z" fill="#B5FFE1"/></g><g transform="translate(963.072 692.736)"><path d="M28.5,23.5Q24,30,17,29Q10,28,6.5,22.5Q3,17,6,10Q9,3,16.5,4Q24,5,28.5,11Q33,17,28.5,23.5Z" fill="#000000" opacity="0.3"/></g><g transform="translate(946.176 743.424)"><path d="M53,46Q48,58,34,58Q20,58,14.5,46Q9,34,13,19.5Q17,5,34,5Q51,5,54.5,19.5Q58,34,53,46Z" fill="#4E878C"/></g><g transform="translate(963.072 760.3199999999999)"><path d="M26.5,22.5Q24,28,17,29Q10,30,5.5,23.5Q1,17,5.5,10.5Q10,4,16.5,5Q23,6,26,11.5Q29,17,26.5,22.5Z" fill="#000000" opacity="0.3"/></g><g transform="translate(946.176 811.008)"><path d="M56,42Q53,50,46,56.5Q39,63,29,61.5Q19,60,14.5,51.5Q10,43,10.5,34Q11,25,15.5,17.5Q20,10,30,5.5Q40,1,46,9.5Q52,18,55.5,26Q59,34,56,42Z" fill="#4E878C"/></g><g transform="translate(963.072 827.904)"><path d="M28.5,21Q26,25,22.5,28.5Q19,32,14.5,30.5Q10,29,7,25.5Q4,22,4.5,17Q5,12,7,8Q9,4,14.5,2Q20,0,23.5,4Q27,8,29,12.5Q31,17,28.5,21Z" fill="#000000" opacity="0.3"/></g><g transform="translate(946.176 878.5920000000001)"><path d="M56.5,42.5Q51,51,42.5,56Q34,61,22.5,59Q11,57,9,45.5Q7,34,10,23.5Q13,13,23.5,11.5Q34,10,43,12.5Q52,15,57,24.5Q62,34,56.5,42.5Z" fill="#B5FFE1"/></g><g transform="translate(963.072 895.488)"><path d="M29,22Q27,27,22,28.5Q17,30,12.5,28Q8,26,6,21.5Q4,17,6,12.5Q8,8,12.5,5Q17,2,23,3.5Q29,5,30,11Q31,17,29,22Z" fill="#000000" opacity="0.3"/></g><g transform="translate(946.176 946.176)"><path d="M54,46Q48,58,32.5,60Q17,62,13,48Q9,34,15.5,23.5Q22,13,34,13Q46,13,53,23.5Q60,34,54,46Z" fill="#65B891"/></g><g transform="translate(963.072 963.072)"><path d="M28.5,23.5Q25,30,17.5,29Q10,28,5.5,22.5Q1,17,6,11.5Q11,6,17,6Q23,6,27.5,11.5Q32,17,28.5,23.5Z" fill="#000000" opacity="0.3"/></g><g transform="translate(946.176 1013.76)"><path d="M59.5,46.5Q54,59,40,62.5Q26,66,16,56.5Q6,47,5,33Q4,19,15.5,11.5Q27,4,40.5,6Q54,8,59.5,21Q65,34,59.5,46.5Z" fill="#93E5AB"/></g><g transform="translate(963.072 1030.656)"><path d="M29.5,23.5Q27,30,20,31.5Q13,33,8,28.5Q3,24,2.5,17Q2,10,7.5,5.5Q13,1,20,2.5Q27,4,29.5,10.5Q32,17,29.5,23.5Z" fill="#000000" opacity="0.3"/></g><g transform="translate(1013.76 -33.792)"><path d="M62,45.5Q57,57,45.5,61.5Q34,66,22.5,61.5Q11,57,7.5,45.5Q4,34,8,23Q12,12,23,9Q34,6,44,9.5Q54,13,60.5,23.5Q67,34,62,45.5Z" fill="#93E5AB"/></g><g transform="translate(1030.656 -16.896)"><path d="M29,22Q27,27,22,29.5Q17,32,11.5,30Q6,28,4,22.5Q2,17,3.5,11Q5,5,11,4Q17,3,22,5Q27,7,29,12Q31,17,29,22Z" fill="#000000" opacity="0.3"/></g><g transform="translate(1013.76 33.792)"><path d="M58.5,45.5Q52,57,39,61.5Q26,66,16,56.5Q6,47,5.5,33.5Q5,20,16.5,13.5Q28,7,40,9Q52,11,58.5,22.5Q65,34,58.5,45.5Z" fill="#4E878C"/></g><g transform="translate(1030.656 50.688)"><path d="M29.5,23.5Q27,30,20,31.5Q13,33,8,28.5Q3,24,2.5,17Q2,10,8,6Q14,2,19.5,4Q25,6,28.5,11.5Q32,17,29.5,23.5Z" fill="#000000" opacity="0.3"/></g><g transform="translate(1013.76 101.376)"><path d="M58,44.5Q55,55,44.5,56.5Q34,58,22,57.5Q10,57,8.5,45.5Q7,34,11,24.5Q15,15,24.5,9Q34,3,45.5,6.5Q57,10,59,22Q61,34,58,44.5Z" fill="#4E878C"/></g><g transform="translate(1030.656 118.272)"><path d="M29.5,22Q27,27,22,28.5Q17,30,12,28.5Q7,27,5.5,22Q4,17,5,11.5Q6,6,11.5,5Q17,4,22.5,5Q28,6,30,11.5Q32,17,29.5,22Z" fill="#000000" opacity="0.3"/></g><g transform="translate(1013.76 168.96)"><path d="M56.5,45Q46,56,33,56.5Q20,57,11,45.5Q2,34,12,23.5Q22,13,35,11.5Q48,10,57.5,22Q67,34,56.5,45Z" fill="#65B891"/></g><g transform="translate(1030.656 185.856)"><path d="M26.5,23Q24,29,17.5,28Q11,27,6,22Q1,17,5.5,11.5Q10,6,16.5,6Q23,6,26,11.5Q29,17,26.5,23Z" fill="#000000" opacity="0.3"/></g><g transform="translate(1013.76 236.544)"><path d="M57.5,46Q48,58,34.5,57Q21,56,15,45Q9,34,13.5,20Q18,6,33.5,7Q49,8,58,21Q67,34,57.5,46Z" fill="#4E878C"/></g><g transform="translate(1030.656 253.44)"><path d="M27.5,24Q25,31,17.5,30.5Q10,30,6.5,23.5Q3,17,6,10Q9,3,17,3Q25,3,27.5,10Q30,17,27.5,24Z" fill="#000000" opacity="0.3"/></g><g transform="translate(1013.76 304.12800000000004)"><path d="M56,44.5Q46,55,33,56Q20,57,13.5,45.5Q7,34,14,22.5Q21,11,34.5,10Q48,9,57,21.5Q66,34,56,44.5Z" fill="#B5FFE1"/></g><g transform="translate(1030.656 321.02400000000006)"><path d="M26.5,23.5Q24,30,16.5,30.5Q9,31,6.5,24Q4,17,7.5,11.5Q11,6,17.5,5.5Q24,5,26.5,11Q29,17,26.5,23.5Z" fill="#000000" opacity="0.3"/></g><g transform="translate(1013.76 371.712)"><path d="M57.5,47.5Q50,61,34.5,60.5Q19,60,12,47Q5,34,11.5,20Q18,6,33,8Q48,10,56.5,22Q65,34,57.5,47.5Z" fill="#4E878C"/></g><g transform="translate(1030.656 388.608)"><path d="M28,24Q25,31,17.5,30Q10,29,6.5,23Q3,17,6,9.5Q9,2,16.5,3Q24,4,27.5,10.5Q31,17,28,24Z" fill="#000000" opacity="0.3"/></g><g transform="translate(1013.76 439.29600000000005)"><path d="M59.5,46.5Q54,59,40.5,62.5Q27,66,18.5,55.5Q10,45,7.5,32.5Q5,20,16.5,14Q28,8,38.5,11.5Q49,15,57,24.5Q65,34,59.5,46.5Z" fill="#B5FFE1"/></g><g transform="translate(1030.656 456.19200000000006)"><path d="M28.5,22Q25,27,19.5,29Q14,31,8.5,27Q3,23,3,16.5Q3,10,8.5,7Q14,4,20.5,4.5Q27,5,29.5,11Q32,17,28.5,22Z" fill="#000000" opacity="0.3"/></g><g transform="translate(1013.76 506.88)"><path d="M52.5,45.5Q47,57,33,58Q19,59,13.5,46.5Q8,34,12.5,19.5Q17,5,31.5,9Q46,13,52,23.5Q58,34,52.5,45.5Z" fill="#65B891"/></g><g transform="translate(1030.656 523.776)"><path d="M29,24Q25,31,17.5,29.5Q10,28,7.5,22.5Q5,17,7,10Q9,3,17,2.5Q25,2,29,9.5Q33,17,29,24Z" fill="#000000" opacity="0.3"/></g><g transform="translate(1013.76 574.464)"><path d="M54.5,46.5Q48,59,34,58.5Q20,58,11,46Q2,34,11,22Q20,10,34,10Q48,10,54.5,22Q61,34,54.5,46.5Z" fill="#B5FFE1"/></g><g transform="translate(1030.656 591.36)"><path d="M27.5,23Q24,29,16.5,29.5Q9,30,5,23.5Q1,17,5.5,11Q10,5,17,4.5Q24,4,27.5,10.5Q31,17,27.5,23Z" fill="#000000" opacity="0.3"/></g><g transform="translate(1013.76 642.048)"><path d="M56.5,47Q49,60,35,58Q21,56,12,45Q3,34,11.5,22Q20,10,33,11Q46,12,55,23Q64,34,56.5,47Z" fill="#65B891"/></g><g transform="translate(1030.656 658.944)"><path d="M27.5,22.5Q23,28,17,27.5Q11,27,5.5,22Q0,17,5,10.5Q10,4,17.5,3Q25,2,28.5,9.5Q32,17,27.5,22.5Z" fill="#000000" opacity="0.3"/></g><g transform="translate(1013.76 709.632)"><path d="M54.5,48.5Q50,63,34.5,61.5Q19,60,14,47Q9,34,13.5,20Q18,6,32.5,8.5Q47,11,53,22.5Q59,34,54.5,48.5Z" fill="#93E5AB"/></g><g transform="translate(1030.656 726.5279999999999)"><path d="M29,23Q24,29,17,28.5Q10,28,7,22.5Q4,17,7,11.5Q10,6,16.5,5.5Q23,5,28.5,11Q34,17,29,23Z" fill="#000000" opacity="0.3"/></g><g transform="translate(1013.76 777.216)"><path d="M61,45Q56,56,45,61.5Q34,67,24,60Q14,53,11,43.5Q8,34,9.5,22.5Q11,11,22.5,9Q34,7,44.5,9.5Q55,12,60.5,23Q66,34,61,45Z" fill="#93E5AB"/></g><g transform="translate(1030.656 794.112)"><path d="M28.5,22.5Q28,28,22.5,28.5Q17,29,12.5,27.5Q8,26,6,21.5Q4,17,5,11.5Q6,6,11.5,3Q17,0,21.5,3.5Q26,7,27.5,12Q29,17,28.5,22.5Z" fill="#000000" opacity="0.3"/></g><g transform="translate(1013.76 844.8000000000001)"><path d="M56.5,48.5Q50,63,35.5,59.5Q21,56,13,45Q5,34,12.5,22.5Q20,11,33.5,11.5Q47,12,55,23Q63,34,56.5,48.5Z" fill="#4E878C"/></g><g transform="translate(1030.656 861.696)"><path d="M28,22.5Q23,28,16,29Q9,30,6.5,23.5Q4,17,7,11Q10,5,17.5,4Q25,3,29,10Q33,17,28,22.5Z" fill="#000000" opacity="0.3"/></g><g transform="translate(1013.76 912.384)"><path d="M56,45.5Q47,57,33,58Q19,59,11,46.5Q3,34,11,21Q19,8,34,8Q49,8,57,21Q65,34,56,45.5Z" fill="#4E878C"/></g><g transform="translate(1030.656 929.28)"><path d="M28.5,23Q24,29,16.5,30Q9,31,5.5,24Q2,17,6,11Q10,5,17,5Q24,5,28.5,11Q33,17,28.5,23Z" fill="#000000" opacity="0.3"/></g><g transform="translate(1013.76 979.968)"><path d="M56,48Q50,62,35.5,59.5Q21,57,12.5,45.5Q4,34,12.5,22.5Q21,11,35,9Q49,7,55.5,20.5Q62,34,56,48Z" fill="#B5FFE1"/></g><g transform="translate(1030.656 996.8639999999999)"><path d="M29,24Q25,31,18,29Q11,27,7,22Q3,17,6.5,11Q10,5,16.5,5.5Q23,6,28,11.5Q33,17,29,24Z" fill="#000000" opacity="0.3"/></g></svg>