<svg xmlns="http://www.w3.org/2000/svg" version="1.1" xmlns:xlink="http://www.w3.org/1999/xlink" xmlns:svgjs="http://svgjs.dev/svgjs" width="1440" height="560" preserveAspectRatio="none" viewBox="0 0 1440 560"><g mask="url(&quot;#SvgjsMask1005&quot;)" fill="none"><rect width="1440" height="560" x="0" y="0" fill="rgba(39, 64, 41, 1)"></rect><path d="M0,583.299C108.353,573.9,207.824,523.716,293.596,456.844C374.099,394.08,445.023,313.967,471.796,215.462C496.819,123.394,448.853,31.852,434.752,-62.508C420.748,-156.214,439.631,-257.033,389.198,-337.242C335.474,-422.685,250.606,-498.232,150.906,-513.938C53.45,-529.29,-34.002,-461.077,-122.702,-417.883C-197.356,-381.529,-266.431,-340.417,-325.422,-281.98C-388.527,-219.468,-442.401,-150.787,-475.53,-68.371C-516.117,32.598,-564.245,139.97,-537.428,245.435C-509.099,356.844,-425.583,449.606,-328.263,510.788C-231.433,571.662,-113.947,593.183,0,583.299" fill="#1f3321"></path><path d="M1440 1223.212C1564.828 1230.509 1685.642 1172.809 1785.2649999999999 1097.242 1880.387 1025.089 1946.144 921.867 1985.7559999999999 809.239 2023.071 703.142 2014.47 590.948 2002.6680000000001 479.101 1990.434 363.163 1995.325 232.974 1915.94 147.596 1836.999 62.696000000000026 1708.559 48.98200000000003 1593.094 38.60799999999995 1493.021 29.616999999999962 1402.357 79.47199999999998 1302.729 92.49900000000002 1178.966 108.68200000000002 1027.489 38.13099999999997 937.249 124.36399999999998 848.753 208.93 889.115 359.462 895.438 481.704 900.748 584.352 933.605 678.453 970.867 774.246 1010.4259999999999 875.9449999999999 1040.901 982.889 1119.738 1058.337 1208.277 1143.0700000000002 1317.657 1216.06 1440 1223.212" fill="#2f4d31"></path></g><defs><mask id="SvgjsMask1005"><rect width="1440" height="560" fill="#ffffff"></rect></mask></defs></svg>